<svg width="15" height="15" viewBox="0 0 15 15" fill="none" xmlns="http://www.w3.org/2000/svg">
<g clip-path="url(#clip0_42_231)">
<path d="M2.73891 0C1.22167 0 0 1.22167 0 2.73891V12.2611C0 13.7783 1.22167 15 2.73891 15H7.89985V9.13595H6.34923V7.02469H7.89985V5.22094C7.89985 3.80382 8.81604 2.50266 10.9266 2.50266C11.7811 2.50266 12.413 2.5847 12.413 2.5847L12.3633 4.55627C12.3633 4.55627 11.7188 4.55018 11.0156 4.55018C10.2545 4.55018 10.1325 4.90085 10.1325 5.483V7.02471H12.4237L12.3239 9.13596H10.1325V15H12.2611C13.7783 15 15 13.7784 15 12.2611V2.73893C15 1.22169 13.7783 1.5e-05 12.2611 1.5e-05H2.73889L2.73891 0Z" fill="#444444"/>
</g>
<defs>
<clipPath id="clip0_42_231">
<rect width="15" height="15" fill="white"/>
</clipPath>
</defs>
</svg>
