<svg width="32" height="32" viewBox="0 0 32 32" fill="none" xmlns="http://www.w3.org/2000/svg">
<mask id="mask0_322_327" style="mask-type:alpha" maskUnits="userSpaceOnUse" x="0" y="0" width="32" height="32">
<rect width="32" height="32" fill="#C4C4C4"/>
</mask>
<g mask="url(#mask0_322_327)">
</g>
<path d="M16.5 6C22.2894 6 27 9.822 27 14.5208C27 16.4016 26.2716 18.0947 24.7491 19.7629C22.5467 22.2986 17.6209 25.3869 16.5 25.8594C15.4106 26.3188 15.5366 25.6009 15.5865 25.3174L15.5904 25.2937L15.7401 24.3947C15.7755 24.1269 15.8123 23.7109 15.7059 23.4457C15.5878 23.1531 15.1232 23.0008 14.7819 22.9273C9.73537 22.2619 6 18.7326 6 14.5208C6 9.822 10.7119 6 16.5 6ZM12.5914 16.0879H10.5898V12.4549C10.5898 12.4008 10.5684 12.3489 10.5303 12.3106C10.4922 12.2722 10.4405 12.2505 10.3864 12.2501H9.64875C9.62186 12.2501 9.59524 12.2554 9.5704 12.2657C9.54555 12.276 9.52298 12.2911 9.50397 12.3101C9.48496 12.3291 9.46988 12.3517 9.45959 12.3765C9.4493 12.4014 9.444 12.428 9.444 12.4549V17.0303C9.444 17.0841 9.46631 17.1352 9.50175 17.1707V17.172L9.50437 17.1746L9.507 17.1772C9.54506 17.2139 9.59594 17.2341 9.64875 17.2337H12.5914C12.7042 17.2337 12.7948 17.1418 12.7948 17.0289V16.2939C12.795 16.267 12.7899 16.2404 12.7797 16.2155C12.7696 16.1906 12.7547 16.1679 12.7358 16.1488C12.7169 16.1296 12.6944 16.1144 12.6696 16.104C12.6449 16.0935 12.6183 16.088 12.5914 16.0879ZM13.6296 12.2501C13.5753 12.2501 13.5232 12.2717 13.4848 12.3101C13.4464 12.3485 13.4248 12.4006 13.4248 12.4549V17.0303C13.4248 17.1431 13.5167 17.2337 13.6296 17.2337H14.3672C14.4801 17.2337 14.5706 17.1418 14.5706 17.0303V12.4549C14.5706 12.4008 14.5492 12.3489 14.5111 12.3106C14.473 12.2722 14.4213 12.2505 14.3672 12.2501H13.6296ZM18.6997 12.2501C18.6454 12.2501 18.5934 12.2717 18.555 12.3101C18.5166 12.3485 18.495 12.4006 18.495 12.4549V15.1718L16.3989 12.342C16.3936 12.3351 16.3879 12.3285 16.3819 12.3223V12.321C16.3777 12.3164 16.3733 12.312 16.3688 12.3079L16.3648 12.3039C16.3603 12.2996 16.3555 12.2957 16.3504 12.2921H16.3491L16.3425 12.2869L16.3386 12.2843C16.3365 12.2827 16.3343 12.2814 16.332 12.2803L16.3215 12.2738H16.3189L16.3149 12.2711L16.3018 12.2659L16.2966 12.2632C16.2923 12.2617 16.2879 12.2604 16.2834 12.2593H16.2808L16.2769 12.258L16.2651 12.2554H16.2572L16.2533 12.2541H16.248L16.2454 12.2527H15.492C15.4379 12.2527 15.386 12.2741 15.3477 12.3123C15.3093 12.3504 15.2876 12.4021 15.2873 12.4562V17.0316C15.2873 17.1444 15.3791 17.235 15.492 17.235H16.227C16.3412 17.235 16.4331 17.1431 16.4331 17.0316V14.3147L18.5331 17.1497C18.547 17.1692 18.5644 17.1861 18.5843 17.1996L18.5856 17.2009L18.5987 17.2087L18.6039 17.2114C18.6073 17.2134 18.6108 17.2151 18.6144 17.2166L18.6236 17.2206L18.6302 17.2232C18.6345 17.2246 18.6389 17.2259 18.6433 17.2271H18.6472C18.6643 17.232 18.682 17.2347 18.6997 17.235H19.4347C19.5489 17.235 19.6408 17.1431 19.6408 17.0316V12.4549C19.6408 12.4006 19.6192 12.3485 19.5808 12.3101C19.5424 12.2717 19.4904 12.2501 19.4361 12.2501H18.6997ZM23.7069 13.1912V12.4562C23.7071 12.4293 23.702 12.4026 23.6919 12.3777C23.6817 12.3528 23.6668 12.3302 23.6479 12.311C23.629 12.2919 23.6065 12.2767 23.5818 12.2662C23.557 12.2558 23.5304 12.2503 23.5035 12.2501H20.5609C20.5079 12.2502 20.4571 12.2709 20.4191 12.3079H20.4178L20.4165 12.3105L20.4139 12.3144C20.3772 12.352 20.3565 12.4024 20.3561 12.4549V17.0303C20.3561 17.0841 20.3784 17.1352 20.4139 17.1707L20.4165 17.1746L20.4191 17.1772C20.4573 17.2137 20.5081 17.234 20.5609 17.2337H23.5035C23.6164 17.2337 23.7069 17.1418 23.7069 17.0289V16.2939C23.7071 16.267 23.702 16.2404 23.6919 16.2155C23.6817 16.1906 23.6668 16.1679 23.6479 16.1488C23.629 16.1296 23.6065 16.1144 23.5818 16.104C23.557 16.0935 23.5304 16.088 23.5035 16.0879H21.5006V15.3148H23.5022C23.6151 15.3148 23.7056 15.2229 23.7056 15.1101V14.3751C23.7058 14.3482 23.7007 14.3215 23.6905 14.2966C23.6804 14.2717 23.6655 14.249 23.6466 14.2299C23.6277 14.2108 23.6052 14.1955 23.5804 14.1851C23.5557 14.1746 23.5291 14.1692 23.5022 14.169H21.5006V13.3959H23.5022C23.6151 13.3959 23.7056 13.3041 23.7056 13.1912H23.7069Z" fill="#8B8B8B"/>
</svg>
