<svg width="30" height="29" viewBox="0 0 30 29" fill="none" xmlns="http://www.w3.org/2000/svg">
<path fill-rule="evenodd" clip-rule="evenodd" d="M13.1512 24.6281C5.74336 23.8765 0 18.667 0 12.3607C0 5.53858 6.72129 0 15 0C23.2787 0 30 5.53858 30 12.3607C30 15.5158 28.5622 18.3966 26.1976 20.5817C25.5854 21.1672 21.5599 25.1082 15.1404 28.6768C14.8779 28.8227 13.7944 29.3085 13.6741 28.5236C13.5841 27.9365 13.9887 27.0059 13.9794 25.911C13.9754 25.4442 13.7559 24.7218 13.1512 24.6281Z" fill="#00B900"/>
<path fill-rule="evenodd" clip-rule="evenodd" d="M20.1399 9.21008C20.1399 9.16279 20.1584 9.11745 20.1914 9.08401C20.2244 9.05058 20.2691 9.0318 20.3157 9.0318H24.2415C24.2881 9.0318 24.3328 9.05058 24.3658 9.08401C24.3987 9.11745 24.4172 9.16279 24.4172 9.21008V10.2804C24.4172 10.3277 24.3987 10.373 24.3658 10.4065C24.3328 10.4399 24.2881 10.4587 24.2415 10.4587H21.5469V11.6466H24.2415C24.2881 11.6466 24.3328 11.6654 24.3658 11.6988C24.3987 11.7323 24.4172 11.7776 24.4172 11.8249V12.8952C24.4172 12.9424 24.3987 12.9878 24.3658 13.0212C24.3328 13.0547 24.2881 13.0734 24.2415 13.0734H21.5469V14.2614H24.2415C24.2881 14.2614 24.3328 14.2801 24.3658 14.3136C24.3987 14.347 24.4172 14.3924 24.4172 14.4396V15.5099C24.4172 15.5572 24.3987 15.6025 24.3658 15.636C24.3328 15.6694 24.2881 15.6882 24.2415 15.6882H20.3157C20.2691 15.6882 20.2244 15.6694 20.1914 15.636C20.1584 15.6025 20.1399 15.5572 20.1399 15.5099V9.21014V9.21008ZM13.6022 9.03245C13.5556 9.03245 13.5109 9.05123 13.4779 9.08467C13.4449 9.1181 13.4264 9.16345 13.4264 9.21073V15.5106C13.4264 15.5578 13.4449 15.6032 13.4779 15.6366C13.5109 15.6701 13.5556 15.6888 13.6022 15.6888H14.6575C14.7041 15.6888 14.7488 15.6701 14.7818 15.6366C14.8147 15.6032 14.8332 15.5578 14.8332 15.5106V11.5878L17.5921 15.6117C17.6083 15.6353 17.6298 15.6546 17.655 15.6679C17.6801 15.6812 17.708 15.6882 17.7364 15.6882H18.8763C18.8994 15.6882 18.9222 15.6836 18.9436 15.6747C18.9649 15.6657 18.9843 15.6526 19.0006 15.636C19.0169 15.6195 19.0299 15.5998 19.0387 15.5782C19.0475 15.5565 19.0521 15.5333 19.052 15.5099L19.0514 9.21073C19.0514 9.16345 19.0329 9.1181 18.9999 9.08467C18.967 9.05123 18.9222 9.03245 18.8756 9.03245H17.8203C17.7737 9.03245 17.729 9.05123 17.696 9.08467C17.663 9.1181 17.6445 9.16345 17.6445 9.21073V13.1329L14.8857 9.10893C14.8695 9.08533 14.848 9.06605 14.8228 9.05273C14.7977 9.03941 14.7698 9.03246 14.7414 9.03245H13.6022ZM12.3386 9.21073C12.3386 9.16345 12.32 9.1181 12.2871 9.08467C12.2541 9.05123 12.2094 9.03245 12.1628 9.03245H11.1074C11.0608 9.03245 11.0161 9.05123 10.9831 9.08467C10.9502 9.1181 10.9317 9.16345 10.9317 9.21073V15.5099C10.9317 15.5572 10.9502 15.6025 10.9831 15.636C11.0161 15.6694 11.0608 15.6882 11.1074 15.6882H12.1627C12.2093 15.6882 12.254 15.6694 12.287 15.636C12.32 15.6025 12.3385 15.5572 12.3385 15.5099V9.21073H12.3386ZM5.80078 15.6882C5.7777 15.6882 5.75484 15.6836 5.73351 15.6746C5.71219 15.6657 5.69282 15.6525 5.6765 15.636C5.66018 15.6194 5.64722 15.5998 5.63839 15.5782C5.62955 15.5565 5.625 15.5334 5.625 15.51V9.21002C5.625 9.16273 5.64352 9.11739 5.67648 9.08396C5.70945 9.05052 5.75416 9.03174 5.80078 9.03174H6.85611C6.90273 9.03174 6.94744 9.05052 6.98041 9.08396C7.01337 9.11739 7.03189 9.16273 7.03189 9.21002V14.2612H9.66797C9.71459 14.2612 9.7593 14.28 9.79226 14.3135C9.82523 14.3469 9.84375 14.3922 9.84375 14.4395V15.5099C9.84375 15.5571 9.82523 15.6025 9.79226 15.6359C9.7593 15.6693 9.71459 15.6881 9.66797 15.6881H5.80078V15.6882Z" fill="white"/>
</svg>
