<svg width="18" height="18" viewBox="0 0 18 18" fill="none" xmlns="http://www.w3.org/2000/svg">
<g clip-path="url(#clip0_42_240)">
<path fill-rule="evenodd" clip-rule="evenodd" d="M2.12061 0.574888C2.31745 0.378337 2.55382 0.225866 2.81405 0.127576C3.07428 0.029287 3.35243 -0.0125753 3.63006 0.00476341C3.90769 0.0221021 4.17847 0.0982461 4.42445 0.228149C4.67043 0.358052 4.88599 0.538748 5.05686 0.758263L7.07623 3.35251C7.44636 3.82839 7.57686 4.44826 7.43061 5.03326L6.81523 7.49701C6.78341 7.62462 6.78513 7.75829 6.82022 7.88504C6.85531 8.01178 6.92257 8.12731 7.01548 8.22039L9.77961 10.9845C9.8728 11.0776 9.98851 11.145 10.1155 11.1801C10.2424 11.2152 10.3763 11.2168 10.5041 11.1848L12.9667 10.5694C13.2554 10.4972 13.5567 10.4916 13.8479 10.553C14.1391 10.6144 14.4125 10.7412 14.6475 10.9238L17.2417 12.942C18.1744 13.6676 18.2599 15.0458 17.4251 15.8794L16.2619 17.0426C15.4294 17.8751 14.1851 18.2408 13.0252 17.8324C10.0566 16.7879 7.36116 15.0883 5.13898 12.8599C2.91068 10.638 1.21116 7.94303 0.16648 4.97476C-0.24077 3.81601 0.124855 2.57064 0.957355 1.73814L2.12061 0.574888Z" fill="#8B8B8B"/>
</g>
<defs>
<clipPath id="clip0_42_240">
<rect width="18" height="18" fill="white"/>
</clipPath>
</defs>
</svg>
