<svg width="20" height="20" fill="none" xmlns="http://www.w3.org/2000/svg"><mask id="a" style="mask-type:alpha" maskUnits="userSpaceOnUse" x="0" y="0" width="20" height="20"><path fill="#C4C4C4" d="M0 0h20v20H0z"/></mask><g mask="url(#a)"><path d="M15.93 2.851A1.305 1.305 0 0014.688 2H5.062c-.577 0-1.058.354-1.242.851L2 7.9v6.742c0 .463.394.842.875.842h.875c.481 0 .875-.379.875-.842v-.843h10.5v.843c0 .463.394.842.875.842h.875c.481 0 .875-.379.875-.842V7.899l-1.82-5.048zM5.063 11.27c-.727 0-1.313-.565-1.313-1.264 0-.7.586-1.264 1.313-1.264.726 0 1.312.564 1.312 1.264 0 .7-.586 1.264-1.313 1.264zm9.625 0c-.727 0-1.313-.565-1.313-1.264 0-.7.586-1.264 1.313-1.264.726 0 1.312.564 1.312 1.264 0 .7-.586 1.264-1.313 1.264zM3.75 7.056l1.313-3.792h9.625L16 7.056H3.75z" fill="#000"/></g></svg>