<svg width="20" height="20" fill="none" xmlns="http://www.w3.org/2000/svg"><mask id="a" style="mask-type:alpha" maskUnits="userSpaceOnUse" x="0" y="0" width="20" height="20"><path fill="#C4C4C4" d="M0 0h20v20H0z"/></mask><g mask="url(#a)"><path d="M9 14.483c0 .53.45.963 1 .963s1-.433 1-.963-.45-.963-1-.963-1 .434-1 .963zM9 1v3.852h2V3.003c3.39.472 6 3.265 6 6.665 0 3.727-3.13 6.742-7 6.742s-7-3.015-7-6.742c0-1.618.59-3.101 1.58-4.257l5.42 5.22 1.41-1.358-6.8-6.549v.02C2.42 4.322 1 6.826 1 9.667c0 4.787 4.02 8.668 9 8.668 4.97 0 9-3.881 9-8.668C19 4.88 14.97 1 10 1H9zm7 8.668c0-.53-.45-.963-1-.963s-1 .433-1 .963.45.963 1 .963 1-.433 1-.963zm-12 0c0 .53.45.963 1 .963s1-.433 1-.963-.45-.963-1-.963-1 .433-1 .963z" fill="#000"/></g></svg>