<svg width="20" height="20" fill="none" xmlns="http://www.w3.org/2000/svg"><mask id="a" style="mask-type:alpha" maskUnits="userSpaceOnUse" x="0" y="0" width="20" height="20"><path fill="#C4C4C4" d="M0 0h20v20H0z"/></mask><g mask="url(#a)"><path d="M7.2 18.2c0 .44.36.8.8.8h3.2c.44 0 .8-.36.8-.8v-.8H7.2v.8zM9.6 3A5.606 5.606 0 004 8.6c0 1.904.952 3.576 2.4 4.592V15c0 .44.36.8.8.8H12c.44 0 .8-.36.8-.8v-1.808A5.597 5.597 0 0015.2 8.6c0-3.088-2.512-5.6-5.6-5.6zm1.6 9.36v1.84H8v-1.84c-1.216-.856-2.4-1.736-2.4-3.76 0-2.208 1.792-4 4-4s4 1.792 4 4c0 1.992-1.208 2.92-2.4 3.76z" fill="#444"/></g></svg>