<svg width="20" height="20" fill="none" xmlns="http://www.w3.org/2000/svg"><mask id="a" style="mask-type:alpha" maskUnits="userSpaceOnUse" x="0" y="0" width="20" height="20"><path fill="#C4C4C4" d="M0 0h20v20H0z"/></mask><g mask="url(#a)"><path d="M15.75 11.427V4.685C15.75 3.758 14.963 3 14 3H1.75C.787 3 0 3.758 0 4.685v6.742c0 .927.787 1.686 1.75 1.686H14c.963 0 1.75-.759 1.75-1.686zm-7.875-.843c-1.452 0-2.625-1.129-2.625-2.528s1.173-2.528 2.625-2.528c1.453 0 2.625 1.13 2.625 2.528 0 1.4-1.172 2.528-2.625 2.528zM19.25 5.528v9.27c0 .927-.788 1.685-1.75 1.685H2.625v-1.685H17.5v-9.27h1.75z" fill="#000"/></g></svg>