<svg width="20" height="20" viewBox="0 0 20 20" fill="none" xmlns="http://www.w3.org/2000/svg">
<mask id="mask0_61_2" style="mask-type:alpha" maskUnits="userSpaceOnUse" x="0" y="0" width="20" height="20">
<rect width="20" height="20" fill="#C4C4C4"/>
</mask>
<g mask="url(#mask0_61_2)">
<path d="M15.93 2.85114C15.755 2.35394 15.265 2 14.6875 2H5.0625C4.485 2 4.00375 2.35394 3.82 2.85114L2 7.89899V14.6407C2 15.1042 2.39375 15.4834 2.875 15.4834H3.75C4.23125 15.4834 4.625 15.1042 4.625 14.6407V13.798H15.125V14.6407C15.125 15.1042 15.5188 15.4834 16 15.4834H16.875C17.3562 15.4834 17.75 15.1042 17.75 14.6407V7.89899L15.93 2.85114ZM5.0625 11.2698C4.33625 11.2698 3.75 10.7052 3.75 10.0058C3.75 9.30632 4.33625 8.7417 5.0625 8.7417C5.78875 8.7417 6.375 9.30632 6.375 10.0058C6.375 10.7052 5.78875 11.2698 5.0625 11.2698ZM14.6875 11.2698C13.9613 11.2698 13.375 10.7052 13.375 10.0058C13.375 9.30632 13.9613 8.7417 14.6875 8.7417C15.4137 8.7417 16 9.30632 16 10.0058C16 10.7052 15.4137 11.2698 14.6875 11.2698ZM3.75 7.05627L5.0625 3.26407H14.6875L16 7.05627H3.75Z" fill="black"/>
</g>
</svg>
