<svg width="20" height="20" viewBox="0 0 20 20" fill="none" xmlns="http://www.w3.org/2000/svg">
<mask id="mask0_59_447" style="mask-type:alpha" maskUnits="userSpaceOnUse" x="0" y="0" width="20" height="20">
<rect width="20" height="20" fill="#C4C4C4"/>
</mask>
<g mask="url(#mask0_59_447)">
<path d="M9 14.4834C9 15.0131 9.45 15.4465 10 15.4465C10.55 15.4465 11 15.0131 11 14.4834C11 13.9537 10.55 13.5203 10 13.5203C9.45 13.5203 9 13.9537 9 14.4834ZM9 1V4.8524H11V3.00325C14.39 3.47517 17 6.26816 17 9.66791C17 13.3951 13.87 16.4096 10 16.4096C6.13 16.4096 3 13.3951 3 9.66791C3 8.0499 3.59 6.56672 4.58 5.411L10 10.631L11.41 9.27304L4.61 2.72395V2.74321C2.42 4.3227 1 6.82676 1 9.66791C1 14.4545 5.02 18.3358 10 18.3358C14.97 18.3358 19 14.4545 19 9.66791C19 4.8813 14.97 1 10 1H9ZM16 9.66791C16 9.1382 15.55 8.70481 15 8.70481C14.45 8.70481 14 9.1382 14 9.66791C14 10.1976 14.45 10.631 15 10.631C15.55 10.631 16 10.1976 16 9.66791ZM4 9.66791C4 10.1976 4.45 10.631 5 10.631C5.55 10.631 6 10.1976 6 9.66791C6 9.1382 5.55 8.70481 5 8.70481C4.45 8.70481 4 9.1382 4 9.66791Z" fill="black"/>
</g>
</svg>
