<svg width="20" height="20" viewBox="0 0 20 20" fill="none" xmlns="http://www.w3.org/2000/svg">
<mask id="mask0_61_12" style="mask-type:alpha" maskUnits="userSpaceOnUse" x="0" y="0" width="20" height="20">
<rect width="20" height="20" fill="#C4C4C4"/>
</mask>
<g mask="url(#mask0_61_12)">
<path d="M7.2 18.2C7.2 18.64 7.56 19 8 19H11.2C11.64 19 12 18.64 12 18.2V17.4H7.2V18.2ZM9.6 3C6.512 3 4 5.512 4 8.6C4 10.504 4.952 12.176 6.4 13.192V15C6.4 15.44 6.76 15.8 7.2 15.8H12C12.44 15.8 12.8 15.44 12.8 15V13.192C14.248 12.176 15.2 10.504 15.2 8.6C15.2 5.512 12.688 3 9.6 3ZM11.2 12.36V14.2H8V12.36C6.784 11.504 5.6 10.624 5.6 8.6C5.6 6.392 7.392 4.6 9.6 4.6C11.808 4.6 13.6 6.392 13.6 8.6C13.6 10.592 12.392 11.52 11.2 12.36Z" fill="#444444"/>
</g>
</svg>
