<svg width="20" height="20" viewBox="0 0 20 20" fill="none" xmlns="http://www.w3.org/2000/svg">
<mask id="mask0_59_453" style="mask-type:alpha" maskUnits="userSpaceOnUse" x="0" y="0" width="20" height="20">
<rect width="20" height="20" fill="#C4C4C4"/>
</mask>
<g mask="url(#mask0_59_453)">
<path d="M15.75 11.4271V4.68542C15.75 3.75844 14.9625 3 14 3H1.75C0.7875 3 0 3.75844 0 4.68542V11.4271C0 12.3541 0.7875 13.1125 1.75 13.1125H14C14.9625 13.1125 15.75 12.3541 15.75 11.4271ZM7.875 10.5844C6.4225 10.5844 5.25 9.45518 5.25 8.05627C5.25 6.65737 6.4225 5.52814 7.875 5.52814C9.3275 5.52814 10.5 6.65737 10.5 8.05627C10.5 9.45518 9.3275 10.5844 7.875 10.5844ZM19.25 5.52814V14.798C19.25 15.725 18.4625 16.4834 17.5 16.4834H2.625V14.798H17.5V5.52814H19.25Z" fill="black"/>
</g>
</svg>
