<svg width="15" height="15" fill="none" xmlns="http://www.w3.org/2000/svg"><g clip-path="url(#clip0_42_231)"><path d="M2.739 0A2.733 2.733 0 000 2.739v9.522A2.733 2.733 0 002.739 15h5.16V9.136H6.35V7.025H7.9V5.22c0-1.417.917-2.718 3.028-2.718.854 0 1.486.082 1.486.082l-.05 1.971s-.644-.006-1.347-.006c-.761 0-.883.35-.883.933v1.542h2.29l-.1 2.111h-2.19V15h2.128A2.733 2.733 0 0015 12.261V2.74A2.733 2.733 0 0012.261 0H2.74z" fill="#444"/></g><defs><clipPath id="clip0_42_231"><path fill="#fff" d="M0 0h15v15H0z"/></clipPath></defs></svg>