<svg width="15" height="15" fill="none" xmlns="http://www.w3.org/2000/svg"><path fill-rule="evenodd" clip-rule="evenodd" d="M4.666.666C5.399.632 5.632.625 7.5.625c1.867 0 2.101.008 2.834.041.732.033 1.232.15 1.67.32a3.38 3.38 0 011.217.793c.35.344.62.759.793 1.217.17.438.286.938.32 1.669.034.734.041.968.041 2.835s-.008 2.101-.041 2.834c-.033.732-.15 1.232-.32 1.67a3.375 3.375 0 01-.793 1.217c-.344.35-.76.62-1.217.793-.438.17-.938.286-1.669.32-.734.034-.968.041-2.835.041s-2.101-.008-2.834-.041c-.732-.033-1.232-.15-1.67-.32a3.375 3.375 0 01-1.217-.793 3.371 3.371 0 01-.793-1.217c-.17-.438-.286-.938-.32-1.669C.632 9.601.625 9.367.625 7.5s.008-2.101.041-2.834c.033-.732.15-1.232.32-1.67.173-.458.443-.874.793-1.217A3.37 3.37 0 012.996.986c.438-.17.938-.286 1.669-.32zm5.612 1.238c-.725-.033-.942-.04-2.778-.04s-2.053.007-2.778.04c-.67.03-1.035.142-1.277.237-.32.125-.55.273-.79.513a2.132 2.132 0 00-.514.791c-.095.243-.207.606-.237 1.277-.033.725-.04.942-.04 2.778s.007 2.053.04 2.778c.03.67.142 1.034.237 1.277.11.298.285.569.513.79.222.229.493.404.791.514.243.095.606.207 1.277.237.725.033.942.04 2.778.04s2.053-.007 2.778-.04c.67-.03 1.034-.142 1.277-.237.32-.125.55-.273.79-.513.229-.222.404-.493.514-.791.095-.242.207-.606.237-1.277.033-.725.04-.942.04-2.778s-.007-2.053-.04-2.778c-.03-.67-.142-1.035-.237-1.277a2.134 2.134 0 00-.513-.79 2.132 2.132 0 00-.791-.514c-.242-.095-.606-.207-1.277-.237zM6.622 9.619a2.293 2.293 0 101.65-4.278 2.294 2.294 0 00-1.65 4.278zm-1.62-4.618a3.534 3.534 0 114.997 4.997A3.534 3.534 0 015 5.001zm6.816-.509a.835.835 0 10-1.147-1.215.835.835 0 001.147 1.215z" fill="#444"/></svg>