<svg width="30" height="29" fill="none" xmlns="http://www.w3.org/2000/svg"><path fill-rule="evenodd" clip-rule="evenodd" d="M13.151 24.628C5.743 23.876 0 18.667 0 12.361 0 5.539 6.721 0 15 0s15 5.539 15 12.36c0 3.156-1.438 6.037-3.802 8.222-.613.585-4.638 4.526-11.058 8.095-.262.146-1.346.631-1.466-.153-.09-.588.315-1.518.305-2.613-.004-.467-.223-1.19-.828-1.283z" fill="#00B900"/><path fill-rule="evenodd" clip-rule="evenodd" d="M20.14 9.21a.18.18 0 01.051-.126.175.175 0 01.125-.052h3.925c.047 0 .092.019.125.052a.18.18 0 01.051.126v1.07a.18.18 0 01-.051.127.175.175 0 01-.125.052h-2.694v1.188h2.694c.047 0 .092.018.125.052a.18.18 0 01.051.126v1.07a.18.18 0 01-.051.126.174.174 0 01-.125.052h-2.694v1.188h2.694a.18.18 0 01.176.178v1.07a.18.18 0 01-.051.127.175.175 0 01-.125.052h-3.925a.175.175 0 01-.125-.052.18.18 0 01-.051-.126v-6.3zm-6.538-.178a.175.175 0 00-.124.053.18.18 0 00-.052.126v6.3a.18.18 0 00.052.126.174.174 0 00.124.052h1.056a.174.174 0 00.124-.052.18.18 0 00.051-.126v-3.923l2.76 4.024a.176.176 0 00.143.076h1.14a.175.175 0 00.176-.178v-6.3A.18.18 0 0019 9.086a.174.174 0 00-.124-.053H17.82a.175.175 0 00-.124.053.18.18 0 00-.052.126v3.922L14.886 9.11a.176.176 0 00-.145-.077h-1.139zm-1.263.179a.18.18 0 00-.052-.126.175.175 0 00-.124-.053h-1.056a.175.175 0 00-.124.053.18.18 0 00-.051.126v6.299a.18.18 0 00.051.126.175.175 0 00.124.052h1.056a.175.175 0 00.124-.052.18.18 0 00.051-.126v-6.3zM5.8 15.688a.173.173 0 01-.125-.052.18.18 0 01-.051-.126v-6.3a.18.18 0 01.051-.126.175.175 0 01.125-.052h1.055c.047 0 .091.019.124.052a.18.18 0 01.052.126v5.051h2.636a.18.18 0 01.176.178v1.07a.18.18 0 01-.052.127.175.175 0 01-.124.052H5.801z" fill="#fff"/></svg>