<svg width="32" height="32" fill="none" xmlns="http://www.w3.org/2000/svg"><path d="M16.5 6C22.29 6 27 9.822 27 14.52c0 1.882-.728 3.575-2.25 5.243-2.203 2.536-7.13 5.624-8.25 6.096-1.09.46-.963-.258-.914-.542l.004-.023.15-.9c.035-.267.072-.683-.034-.948-.118-.293-.583-.445-.924-.519C9.735 22.262 6 18.733 6 14.521 6 9.822 10.712 6 16.5 6zm-3.909 10.088H10.59v-3.633a.205.205 0 00-.204-.205H9.65a.205.205 0 00-.205.205v4.575a.2.2 0 00.058.14v.002l.002.003.003.002a.202.202 0 00.142.057h2.942a.204.204 0 00.204-.205v-.735a.203.203 0 00-.125-.19.202.202 0 00-.079-.016zm1.039-3.838a.205.205 0 00-.205.205v4.575c0 .113.092.204.205.204h.737a.204.204 0 00.204-.204v-4.575a.205.205 0 00-.204-.205h-.737zm5.07 0a.205.205 0 00-.205.205v2.717l-2.096-2.83a.229.229 0 00-.017-.02v-.001a.202.202 0 00-.013-.013l-.004-.004a.126.126 0 00-.015-.012l-.008-.005-.003-.003a.037.037 0 00-.007-.004l-.01-.006h-.003l-.004-.003-.013-.005-.005-.003a.144.144 0 00-.014-.004h-.002l-.004-.001-.012-.003h-.017l-.003-.002h-.753a.204.204 0 00-.205.203v4.576c0 .112.092.203.205.203h.735a.205.205 0 00.206-.203v-2.717l2.1 2.835c.014.02.031.036.051.05h.002l.013.009.005.002a.085.085 0 00.01.006l.01.004.006.002a.283.283 0 00.013.004h.004a.203.203 0 00.053.008h.735a.205.205 0 00.206-.203v-4.577a.205.205 0 00-.205-.205H18.7zm5.007.941v-.735a.205.205 0 00-.204-.206h-2.942a.204.204 0 00-.142.058h-.001l-.002.002-.002.004a.203.203 0 00-.058.14v4.576a.2.2 0 00.058.14l.002.005.003.002a.204.204 0 00.142.057h2.942a.204.204 0 00.204-.205v-.735a.204.204 0 00-.204-.206h-2.002v-.773h2.001a.204.204 0 00.204-.205v-.735a.203.203 0 00-.126-.19.204.204 0 00-.078-.016h-2.001v-.773h2.001a.204.204 0 00.204-.205z" fill="#8B8B8B"/></svg>