<svg width="18" height="18" fill="none" xmlns="http://www.w3.org/2000/svg"><g clip-path="url(#clip0_42_240)"><path fill-rule="evenodd" clip-rule="evenodd" d="M2.12.575a1.963 1.963 0 012.937.183l2.02 2.595c.37.475.5 1.095.354 1.68l-.616 2.464a.763.763 0 00.2.723l2.765 2.764a.763.763 0 00.724.2l2.463-.615a1.963 1.963 0 011.68.355l2.595 2.018a1.963 1.963 0 01.183 2.937l-1.163 1.164c-.833.832-2.077 1.198-3.237.79A20.964 20.964 0 015.14 12.86 20.964 20.964 0 01.166 4.975C-.24 3.816.125 2.57.957 1.738L2.121.575z" fill="#8B8B8B"/></g><defs><clipPath id="clip0_42_240"><path fill="#fff" d="M0 0h18v18H0z"/></clipPath></defs></svg>