<svg width="125" height="103" fill="none" xmlns="http://www.w3.org/2000/svg"><path d="M18.125 29.813c2.292 0 4.396.604 6.313 1.812 1.958 1.167 3.645 2.833 5.062 5 1.417 2.167 2.5 4.77 3.25 7.813.792 3 1.188 6.333 1.188 10 0 2.25-.167 4.437-.5 6.562-.334 2.125-.813 4.104-1.438 5.938-.625 1.833-1.396 3.5-2.313 5-.875 1.5-1.854 2.729-2.937 3.687-2.5 2.25-5.48 3.375-8.938 3.375-2.208 0-4.229-.438-6.062-1.313-1.792-.916-3.354-2.229-4.688-3.937-.791-1.042-1.52-2.292-2.187-3.75a38.394 38.394 0 01-1.75-4.813A54.54 54.54 0 012 59.75a43.938 43.938 0 01-.375-5.688c0-2.166.167-4.291.5-6.374a39.864 39.864 0 011.5-5.938c.667-1.833 1.458-3.48 2.375-4.938.917-1.5 1.917-2.729 3-3.687 1.292-1.167 2.667-2 4.125-2.5 1.458-.542 3.125-.813 5-.813zm-.438 1.812c-3 0-5.27 1.958-6.812 5.875-1.542 3.917-2.313 9.604-2.313 17.063 0 15.041 3.084 22.562 9.25 22.562 3.042 0 5.334-1.854 6.875-5.563 1.584-3.75 2.375-9.312 2.375-16.687 0-7.75-.791-13.563-2.375-17.438-1.541-3.874-3.875-5.812-7-5.812zM57 29.937V72.75c0 .875.083 1.583.25 2.125.167.5.5.917 1 1.25.5.292 1.188.5 2.063.625.916.125 2.083.208 3.5.25v1H44.124v-1c1.375-.042 2.5-.167 3.375-.375s1.563-.52 2.063-.938c.5-.416.833-.958 1-1.624.208-.709.312-1.605.312-2.688v-32.25c0-2.292-.708-3.438-2.125-3.438-.75 0-1.833.271-3.25.813l-1.938.813V36.25l12.813-6.438.625.125z" fill="#98784D"/><path fill="#fff" d="M36 58h89v25H36z"/><path d="M51.335 74.866c-.49.322-1.113.623-1.869.903a7.171 7.171 0 01-2.436.399c-1.554 0-2.926-.343-4.116-1.029a7.21 7.21 0 01-2.73-2.772c-.63-1.162-.945-2.443-.945-3.843 0-1.498.322-2.842.966-4.032.644-1.204 1.533-2.142 2.667-2.814 1.148-.686 2.443-1.029 3.885-1.029.854 0 1.652.112 2.394.336a8.362 8.362 0 011.995.882l-.819 1.911c-1.162-.784-2.331-1.176-3.507-1.176-.98 0-1.89.259-2.73.777a5.818 5.818 0 00-1.995 2.121c-.49.882-.735 1.855-.735 2.919 0 1.092.224 2.079.672 2.961a5.176 5.176 0 001.953 2.079c.854.49 1.834.735 2.94.735 1.358 0 2.541-.385 3.549-1.155l.861 1.827zm3.241-3.297c0-.854.203-1.631.61-2.331a4.511 4.511 0 011.721-1.68c.742-.406 1.575-.609 2.5-.609.923 0 1.742.203 2.456.609a4.256 4.256 0 011.68 1.659c.406.7.61 1.484.61 2.352 0 .868-.204 1.659-.61 2.373a4.256 4.256 0 01-1.68 1.659c-.728.406-1.56.609-2.499.609-.91 0-1.729-.189-2.457-.567a4.405 4.405 0 01-1.722-1.638c-.406-.7-.609-1.512-.609-2.436zm1.974.021c0 .546.12 1.05.357 1.512.252.462.588.826 1.008 1.092.434.266.91.399 1.428.399.812 0 1.484-.287 2.016-.861.532-.574.798-1.288.798-2.142 0-.854-.266-1.568-.798-2.142-.532-.588-1.204-.882-2.016-.882-.532 0-1.008.14-1.428.42-.42.266-.756.63-1.008 1.092a3.253 3.253 0 00-.357 1.512zm16.672-4.62c.812 0 1.484.245 2.016.735.532.476.805 1.099.82 1.869V76h-1.975v-5.754c-.028-.49-.175-.875-.44-1.155-.267-.28-.666-.427-1.198-.441-.77 0-1.407.308-1.91.924-.505.616-.757 1.4-.757 2.352V76h-1.953v-8.694h1.764l.126 1.68c.308-.63.77-1.12 1.386-1.47.616-.364 1.323-.546 2.121-.546zm14.317 8.211a4.366 4.366 0 01-1.407.756 5.027 5.027 0 01-1.638.273c-.938 0-1.771-.189-2.5-.567a4.192 4.192 0 01-1.68-1.596c-.391-.7-.587-1.505-.587-2.415 0-.896.21-1.687.63-2.373.42-.7.98-1.239 1.68-1.617a4.699 4.699 0 012.268-.567c1.33 0 2.429.364 3.297 1.092l-.987 1.281a3.981 3.981 0 00-.966-.525 2.987 2.987 0 00-1.176-.231 2.68 2.68 0 00-1.428.399c-.42.252-.756.602-1.008 1.05a3.128 3.128 0 00-.357 1.491c0 .546.126 1.043.378 1.491a2.945 2.945 0 002.604 1.47c.714 0 1.337-.21 1.869-.63l1.008 1.218zm7.645-.651c.728 0 1.435-.252 2.121-.756l.903 1.449a6.307 6.307 0 01-1.512.735 5.147 5.147 0 01-1.554.252c-.966 0-1.813-.196-2.541-.588a4.294 4.294 0 01-1.659-1.659c-.392-.7-.588-1.491-.588-2.373 0-.854.21-1.631.63-2.331a4.624 4.624 0 011.764-1.68 4.86 4.86 0 012.436-.63c1.134 0 2.079.336 2.835 1.008.77.658 1.295 1.582 1.575 2.772l-6.888 2.415c.252.434.588.777 1.008 1.029.434.238.924.357 1.47.357zm-.147-6.027c-.798 0-1.456.28-1.974.84-.518.56-.777 1.274-.777 2.142 0 .21.007.371.021.483l5.061-1.869a2.852 2.852 0 00-.903-1.155c-.378-.294-.854-.441-1.428-.441zm13.535-1.554c.812 0 1.547.196 2.205.588a4.136 4.136 0 011.554 1.659c.378.7.567 1.512.567 2.436 0 .91-.203 1.715-.609 2.415a4.192 4.192 0 01-1.68 1.596c-.714.378-1.512.567-2.394.567-.63 0-1.232-.133-1.806-.399a3.783 3.783 0 01-1.386-1.113v5.481h-1.953v-13.02h1.701l.168 1.47c.448-.504.98-.91 1.596-1.218a4.576 4.576 0 012.037-.462zm-.735 7.686c.546 0 1.05-.126 1.512-.378a3.088 3.088 0 001.134-1.071 2.9 2.9 0 00.42-1.533c0-.574-.133-1.092-.399-1.554a2.812 2.812 0 00-1.05-1.092 2.866 2.866 0 00-1.491-.399c-.742 0-1.379.21-1.911.63-.518.406-.861.959-1.029 1.659v1.449a2.67 2.67 0 00.945 1.659c.532.42 1.155.63 1.869.63zm11.545-11.151v3.843h2.373v1.554h-2.373V76h-1.974v-7.119h-1.596v-1.554h1.596v-3.843h1.974z" fill="#444"/></svg>