<svg width="101" height="103" fill="none" xmlns="http://www.w3.org/2000/svg"><path d="M18.125 29.813c2.292 0 4.396.604 6.313 1.812 1.958 1.167 3.645 2.833 5.062 5 1.417 2.167 2.5 4.77 3.25 7.813.792 3 1.188 6.333 1.188 10 0 2.25-.167 4.437-.5 6.562-.334 2.125-.813 4.104-1.438 5.938-.625 1.833-1.396 3.5-2.313 5-.875 1.5-1.854 2.729-2.937 3.687-2.5 2.25-5.48 3.375-8.938 3.375-2.208 0-4.229-.438-6.062-1.313-1.792-.916-3.354-2.229-4.688-3.937-.791-1.042-1.52-2.292-2.187-3.75a38.394 38.394 0 01-1.75-4.813A54.54 54.54 0 012 59.75a43.938 43.938 0 01-.375-5.688c0-2.166.167-4.291.5-6.374a39.864 39.864 0 011.5-5.938c.667-1.833 1.458-3.48 2.375-4.938.917-1.5 1.917-2.729 3-3.687 1.292-1.167 2.667-2 4.125-2.5 1.458-.542 3.125-.813 5-.813zm-.438 1.812c-3 0-5.27 1.958-6.812 5.875-1.542 3.917-2.313 9.604-2.313 17.063 0 15.041 3.084 22.562 9.25 22.562 3.042 0 5.334-1.854 6.875-5.563 1.584-3.75 2.375-9.312 2.375-16.687 0-7.75-.791-13.563-2.375-17.438-1.541-3.874-3.875-5.812-7-5.812zM65.626 78H37.812v-.875L50.5 63.687c3-3.208 5.292-6.395 6.875-9.562 1.625-3.167 2.438-6.146 2.438-8.938 0-3.041-.917-5.479-2.75-7.312-1.792-1.875-4.25-2.813-7.376-2.813-1.25 0-2.354.167-3.312.5-.958.292-1.833.813-2.625 1.563-.792.708-1.542 1.646-2.25 2.813-.708 1.166-1.417 2.624-2.125 4.374l-1.5-.312c.292-1.25.583-2.354.875-3.313.333-.958.667-1.812 1-2.562.375-.75.77-1.438 1.188-2.063.416-.624.916-1.25 1.5-1.874a13.714 13.714 0 014.624-3.25 14.424 14.424 0 015.626-1.125c1.874 0 3.604.333 5.187 1 1.625.625 3.02 1.5 4.188 2.625a11.802 11.802 0 012.812 4c.708 1.5 1.063 3.124 1.063 4.874 0 2.876-.75 5.709-2.25 8.5-1.459 2.792-3.75 5.876-6.876 9.25l-12 12.5h17a14.8 14.8 0 002.063-.124 4.075 4.075 0 001.563-.688c.5-.333.979-.813 1.437-1.438.5-.624 1.083-1.458 1.75-2.5l.938.438L65.624 78z" fill="#98784D"/><path fill="#fff" d="M36 60h65v22H36z"/><path d="M57.283 61.334V77h-2.016v-9.828l-5.586 7.917h-.042l-5.481-7.644V77h-1.974V61.334h.021l7.476 10.584 7.581-10.584h.021zm9.004 14.196c.728 0 1.435-.252 2.12-.756l.904 1.449a6.307 6.307 0 01-1.512.735 5.147 5.147 0 01-1.554.252c-.966 0-1.813-.196-2.541-.588a4.294 4.294 0 01-1.66-1.659c-.391-.7-.587-1.491-.587-2.373 0-.854.21-1.631.63-2.331a4.624 4.624 0 011.764-1.68 4.86 4.86 0 012.436-.63c1.134 0 2.079.336 2.835 1.008.77.658 1.295 1.582 1.575 2.772l-6.888 2.415c.252.434.588.777 1.008 1.029.434.238.924.357 1.47.357zm-.147-6.027c-.798 0-1.456.28-1.974.84-.518.56-.777 1.274-.777 2.142 0 .21.007.371.02.483l5.062-1.869a2.852 2.852 0 00-.903-1.155c-.378-.294-.854-.441-1.428-.441zm13.43-1.533c.812 0 1.484.245 2.016.735.532.476.805 1.099.82 1.869V77H80.43v-5.754c-.028-.49-.175-.875-.44-1.155-.267-.28-.666-.427-1.198-.441-.77 0-1.407.308-1.91.924-.505.616-.757 1.4-.757 2.352V77h-1.953v-8.694h1.764l.126 1.68c.308-.63.77-1.12 1.386-1.47.616-.364 1.323-.546 2.121-.546zm15.346.336V77h-1.764l-.127-1.659c-.294.588-.749 1.071-1.365 1.449a3.97 3.97 0 01-2.057.546c-.798 0-1.456-.238-1.974-.714-.505-.49-.77-1.12-.799-1.89v-6.426h1.954v5.733c.027.49.167.882.42 1.176.266.28.658.427 1.175.441.477 0 .91-.14 1.302-.42.392-.294.7-.693.925-1.197a3.885 3.885 0 00.357-1.68v-4.053h1.953z" fill="#444"/></svg>