<svg width="138" height="52" fill="none" xmlns="http://www.w3.org/2000/svg"><path d="M39.184 31.817h4.158c1.89 0 3.451.378 4.683 1.134 1.246.742 2.149 1.708 2.709 2.898a8.413 8.413 0 01.861 3.738c0 1.47-.343 2.772-1.029 3.906a7.125 7.125 0 01-2.751 2.604 7.927 7.927 0 01-3.738.903h-4.893V31.817zm4.494 13.209c1.12 0 2.121-.217 3.003-.651a4.897 4.897 0 002.058-1.932c.504-.84.756-1.841.756-3.003 0-1.19-.259-2.212-.777-3.066a5.02 5.02 0 00-2.079-1.932 5.877 5.877 0 00-2.772-.672h-2.646v11.256h2.457zm15.979.504c.728 0 1.435-.252 2.121-.756l.903 1.449a6.307 6.307 0 01-1.512.735 5.147 5.147 0 01-1.554.252c-.966 0-1.813-.196-2.541-.588a4.294 4.294 0 01-1.659-1.659c-.392-.7-.588-1.491-.588-2.373 0-.854.21-1.631.63-2.331a4.624 4.624 0 011.764-1.68 4.86 4.86 0 012.436-.63c1.134 0 2.079.336 2.835 1.008.77.658 1.295 1.582 1.575 2.772l-6.888 2.415c.252.434.588.777 1.008 1.029.434.238.924.357 1.47.357zm-.147-6.027c-.798 0-1.456.28-1.974.84-.518.56-.777 1.274-.777 2.142 0 .21.007.371.021.483l5.061-1.869a2.852 2.852 0 00-.903-1.155c-.378-.294-.854-.441-1.428-.441zM70 47.189c-.644 0-1.26-.112-1.848-.336a3.42 3.42 0 01-1.407-.987l.84-1.134c.35.336.714.595 1.092.777a2.73 2.73 0 001.155.273c.462 0 .84-.091 1.134-.273.294-.182.441-.462.441-.84 0-.294-.09-.532-.273-.714a1.665 1.665 0 00-.63-.399c-.224-.084-.609-.21-1.155-.378-1.484-.476-2.226-1.323-2.226-2.541 0-.728.266-1.351.798-1.869.546-.518 1.302-.777 2.268-.777.616 0 1.162.077 1.638.231a3.99 3.99 0 011.323.735l-.777 1.197a2.369 2.369 0 00-.86-.567 2.85 2.85 0 00-.967-.231c-.392 0-.728.098-1.008.294a.856.856 0 00-.42.756c0 .266.091.49.273.672.182.168.371.294.567.378.196.07.581.196 1.155.378.714.238 1.267.546 1.66.924.405.378.608.889.608 1.533 0 .84-.294 1.533-.882 2.079-.588.546-1.42.819-2.499.819zm9.118-8.883V47h-1.953v-8.694h1.953zm-2.1-3.129c0-.308.12-.567.358-.777.237-.21.51-.315.819-.315.308 0 .574.105.798.315.238.21.357.469.357.777a.996.996 0 01-.357.777c-.224.21-.49.315-.798.315-.308 0-.581-.105-.82-.315a.996.996 0 01-.356-.777zm15.727 3.129v8.757c0 .798-.203 1.519-.609 2.163-.406.644-.987 1.155-1.743 1.533-.742.378-1.617.567-2.625.567-.882 0-1.645-.147-2.289-.441-.63-.294-1.267-.728-1.911-1.302l1.155-1.344c.476.448.952.784 1.428 1.008a3.472 3.472 0 001.575.357c.966 0 1.708-.231 2.226-.693.532-.462.805-1.085.819-1.869l.021-1.638c-.322.546-.798.987-1.428 1.323-.616.322-1.33.483-2.142.483a4.185 4.185 0 01-2.205-.609 4.595 4.595 0 01-1.617-1.659 4.688 4.688 0 01-.588-2.331c0-.882.203-1.673.609-2.373.42-.714.98-1.274 1.68-1.68a4.405 4.405 0 012.247-.609c.742 0 1.428.147 2.058.441.63.294 1.099.672 1.407 1.134l.147-1.218h1.785zm-4.956 7.287c.742 0 1.386-.203 1.932-.609a2.796 2.796 0 001.071-1.596v-1.722a2.805 2.805 0 00-1.113-1.512c-.546-.392-1.176-.588-1.89-.588-.854 0-1.568.28-2.142.84-.574.56-.861 1.274-.861 2.142 0 .56.133 1.071.399 1.533.266.462.63.833 1.092 1.113.462.266.966.399 1.512.399zm14.797-7.623c.812 0 1.484.245 2.016.735.532.476.805 1.099.819 1.869V47h-1.974v-5.754c-.028-.49-.175-.875-.441-1.155s-.665-.427-1.197-.441c-.77 0-1.407.308-1.91.924-.505.616-.757 1.4-.757 2.352V47H97.19v-8.694h1.764l.126 1.68c.308-.63.77-1.12 1.386-1.47.616-.364 1.323-.546 2.121-.546zm11.335 7.56c.728 0 1.435-.252 2.121-.756l.903 1.449a6.307 6.307 0 01-1.512.735 5.147 5.147 0 01-1.554.252c-.966 0-1.813-.196-2.541-.588a4.294 4.294 0 01-1.659-1.659c-.392-.7-.588-1.491-.588-2.373 0-.854.21-1.631.63-2.331a4.624 4.624 0 011.764-1.68 4.86 4.86 0 012.436-.63c1.134 0 2.079.336 2.835 1.008.77.658 1.295 1.582 1.575 2.772l-6.888 2.415c.252.434.588.777 1.008 1.029.434.238.924.357 1.47.357zm-.147-6.027c-.798 0-1.456.28-1.974.84-.518.56-.777 1.274-.777 2.142 0 .21.007.371.021.483l5.061-1.869a2.852 2.852 0 00-.903-1.155c-.378-.294-.854-.441-1.428-.441zm9.923.861c.224-.476.539-.896.945-1.26.42-.364.861-.644 1.323-.84.462-.196.868-.301 1.218-.315l-.084 1.953a3.25 3.25 0 00-1.722.378c-.504.28-.903.672-1.197 1.176-.28.49-.42 1.015-.42 1.575V47h-1.953v-8.694h1.743l.147 2.058zm9.512 6.825c-.644 0-1.26-.112-1.848-.336a3.42 3.42 0 01-1.407-.987l.84-1.134c.35.336.714.595 1.092.777a2.73 2.73 0 001.155.273c.462 0 .84-.091 1.134-.273.294-.182.441-.462.441-.84 0-.294-.091-.532-.273-.714a1.665 1.665 0 00-.63-.399c-.224-.084-.609-.21-1.155-.378-1.484-.476-2.226-1.323-2.226-2.541 0-.728.266-1.351.798-1.869.546-.518 1.302-.777 2.268-.777.616 0 1.162.077 1.638.231a3.99 3.99 0 011.323.735l-.777 1.197a2.369 2.369 0 00-.861-.567 2.85 2.85 0 00-.966-.231c-.392 0-.728.098-1.008.294a.856.856 0 00-.42.756c0 .266.091.49.273.672.182.168.371.294.567.378.196.07.581.196 1.155.378.714.238 1.267.546 1.659.924.406.378.609.889.609 1.533 0 .84-.294 1.533-.882 2.079-.588.546-1.421.819-2.499.819z" fill="#fff"/><path fill-rule="evenodd" clip-rule="evenodd" d="M22.813 1.813C20.895.603 18.791 0 16.5 0c-1.875 0-3.542.27-5 .813-1.458.5-2.833 1.333-4.125 2.5C6.292 4.27 5.292 5.5 4.375 7 3.458 8.458 2.667 10.104 2 11.938a39.864 39.864 0 00-1.5 5.937A40.289 40.289 0 000 24.25c0 1.875.125 3.77.375 5.688A54.54 54.54 0 001.5 35.374a38.394 38.394 0 001.75 4.813c.667 1.458 1.396 2.708 2.188 3.75 1.333 1.708 2.895 3.02 4.687 3.937 1.833.875 3.854 1.313 6.063 1.313 3.458 0 6.437-1.126 8.937-3.376 1.083-.958 2.063-2.187 2.938-3.687.916-1.5 1.687-3.167 2.312-5 .625-1.833 1.104-3.813 1.438-5.938.333-2.125.5-4.312.5-6.562 0-3.667-.396-7-1.188-10-.75-3.042-1.833-5.646-3.25-7.813-1.417-2.166-3.104-3.833-5.063-5zM9.25 7.688c1.542-3.917 3.813-5.875 6.813-5.875 3.125 0 5.458 1.937 7 5.812 1.583 3.875 2.375 9.688 2.375 17.438 0 7.375-.792 12.937-2.375 16.687-1.542 3.708-3.834 5.563-6.875 5.563-6.167 0-9.25-7.521-9.25-22.563 0-7.458.77-13.146 2.312-17.063zm38.813 14.875a46.97 46.97 0 01-3.126 1.187v.875c2.042 0 3.563.063 4.563.188 1.042.083 1.958.27 2.75.562 2.292.75 4.083 2.083 5.375 4A10.974 10.974 0 0159.473 34H64.7c.033-.451.05-.91.05-1.375 0-1.875-.27-3.604-.813-5.188-.5-1.625-1.25-2.979-2.25-4.062a11.28 11.28 0 00-2.374-1.938c-.834-.541-2.042-1.145-3.626-1.812 1.25-.875 2.292-1.688 3.126-2.438.874-.791 1.562-1.562 2.062-2.312.5-.792.854-1.604 1.063-2.438a9.31 9.31 0 00.374-2.687c0-2.958-1.02-5.313-3.062-7.063-2-1.79-4.667-2.687-8-2.687-3.542 0-6.625 1.146-9.25 3.438-.542.5-1.02 1-1.438 1.5-.416.5-.812 1.062-1.187 1.687a50.39 50.39 0 00-1.063 2.125c-.333.792-.708 1.708-1.124 2.75l1.124.313c1.459-2.667 3.021-4.584 4.688-5.75 1.667-1.209 3.625-1.813 5.875-1.813 2.375 0 4.27.708 5.688 2.125 1.458 1.375 2.187 3.208 2.187 5.5 0 1.25-.25 2.5-.75 3.75a10.24 10.24 0 01-2.063 3.188 16.762 16.762 0 01-1.624 1.437c-.542.417-1.167.813-1.876 1.188a21.42 21.42 0 01-2.374 1.125z" fill="#98784D"/></svg>