<svg width="101" height="103" fill="none" xmlns="http://www.w3.org/2000/svg"><path d="M18.125 29.813c2.292 0 4.396.604 6.313 1.812 1.958 1.167 3.645 2.833 5.062 5 1.417 2.167 2.5 4.77 3.25 7.813.792 3 1.188 6.333 1.188 10 0 2.25-.167 4.437-.5 6.562-.334 2.125-.813 4.104-1.438 5.938-.625 1.833-1.396 3.5-2.313 5-.875 1.5-1.854 2.729-2.937 3.687-2.5 2.25-5.48 3.375-8.938 3.375-2.208 0-4.229-.438-6.062-1.313-1.792-.916-3.354-2.229-4.688-3.937-.791-1.042-1.52-2.292-2.187-3.75a38.394 38.394 0 01-1.75-4.813A54.54 54.54 0 012 59.75a43.938 43.938 0 01-.375-5.688c0-2.166.167-4.291.5-6.374a39.864 39.864 0 011.5-5.938c.667-1.833 1.458-3.48 2.375-4.938.917-1.5 1.917-2.729 3-3.687 1.292-1.167 2.667-2 4.125-2.5 1.458-.542 3.125-.813 5-.813zm-.438 1.812c-3 0-5.27 1.958-6.812 5.875-1.542 3.917-2.313 9.604-2.313 17.063 0 15.041 3.084 22.562 9.25 22.562 3.042 0 5.334-1.854 6.875-5.563 1.584-3.75 2.375-9.312 2.375-16.687 0-7.75-.791-13.563-2.375-17.438-1.541-3.874-3.875-5.812-7-5.812zm51.688 34.5h-7.313V78h-5.5V66.125h-20v-4.563l22.376-31.75h3.124v31.75h7.313v4.563zM56.5 37.062l-17.125 24.5H56.5v-24.5z" fill="#98784D"/><path fill="#fff" d="M36 61h65v19H36z"/><path d="M44.946 69.125c.868.336 1.554.819 2.058 1.449.504.616.756 1.337.756 2.163 0 .966-.238 1.771-.714 2.415-.462.63-1.078 1.099-1.848 1.407-.756.294-1.589.441-2.499.441h-4.515V61.817h3.927c1.554 0 2.758.322 3.612.966.854.63 1.281 1.582 1.281 2.856 0 .798-.182 1.498-.546 2.1-.35.588-.854 1.05-1.512 1.386zm-4.725-.672h2.31c.784 0 1.372-.224 1.764-.672.406-.448.609-1.022.609-1.722 0-.77-.238-1.344-.714-1.722-.476-.378-1.141-.567-1.995-.567h-1.974v4.683zm2.394 6.657c.882 0 1.61-.196 2.184-.588.574-.406.861-.994.861-1.764 0-.798-.315-1.386-.945-1.764-.616-.378-1.365-.567-2.247-.567h-2.247v4.683h2.394zm11.091-14.385V77h-1.953V60.725h1.953zM57.4 72.569c0-.854.203-1.631.608-2.331a4.511 4.511 0 011.722-1.68c.742-.406 1.576-.609 2.5-.609.924 0 1.742.203 2.456.609a4.256 4.256 0 011.68 1.659c.406.7.61 1.484.61 2.352 0 .868-.204 1.659-.61 2.373a4.256 4.256 0 01-1.68 1.659c-.728.406-1.56.609-2.499.609-.91 0-1.728-.189-2.456-.567a4.405 4.405 0 01-1.723-1.638c-.406-.7-.608-1.512-.608-2.436zm1.974.021c0 .546.118 1.05.356 1.512a2.93 2.93 0 001.009 1.092c.434.266.91.399 1.428.399.811 0 1.483-.287 2.016-.861.531-.574.797-1.288.797-2.142 0-.854-.266-1.568-.797-2.142-.533-.588-1.205-.882-2.017-.882-.531 0-1.008.14-1.427.42-.42.266-.756.63-1.008 1.092a3.253 3.253 0 00-.358 1.512zm20.452-4.284v8.757c0 .798-.203 1.519-.61 2.163-.405.644-.986 1.155-1.742 1.533-.742.378-1.617.567-2.625.567-.882 0-1.645-.147-2.29-.441-.63-.294-1.266-.728-1.91-1.302l1.155-1.344c.476.448.952.784 1.428 1.008a3.472 3.472 0 001.575.357c.966 0 1.708-.231 2.226-.693.532-.462.805-1.085.819-1.869l.02-1.638c-.321.546-.797.987-1.427 1.323-.616.322-1.33.483-2.142.483a4.185 4.185 0 01-2.205-.609 4.595 4.595 0 01-1.617-1.659 4.688 4.688 0 01-.588-2.331c0-.882.203-1.673.609-2.373.42-.714.98-1.274 1.68-1.68a4.405 4.405 0 012.247-.609c.742 0 1.428.147 2.058.441.63.294 1.099.672 1.407 1.134l.147-1.218h1.785zm-4.956 7.287c.742 0 1.386-.203 1.932-.609a2.796 2.796 0 001.07-1.596v-1.722a2.805 2.805 0 00-1.112-1.512c-.546-.392-1.176-.588-1.89-.588-.854 0-1.568.28-2.142.84-.574.56-.861 1.274-.861 2.142 0 .56.133 1.071.399 1.533.266.462.63.833 1.092 1.113.462.266.966.399 1.512.399z" fill="#444"/></svg>