<svg width="110" height="103" fill="none" xmlns="http://www.w3.org/2000/svg"><path d="M18.125 29.813c2.292 0 4.396.604 6.313 1.812 1.958 1.167 3.645 2.833 5.062 5 1.417 2.167 2.5 4.77 3.25 7.813.792 3 1.188 6.333 1.188 10 0 2.25-.167 4.437-.5 6.562-.334 2.125-.813 4.104-1.438 5.938-.625 1.833-1.396 3.5-2.313 5-.875 1.5-1.854 2.729-2.937 3.687-2.5 2.25-5.48 3.375-8.938 3.375-2.208 0-4.229-.438-6.062-1.313-1.792-.916-3.354-2.229-4.688-3.937-.791-1.042-1.52-2.292-2.187-3.75a38.394 38.394 0 01-1.75-4.813A54.54 54.54 0 012 59.75a43.938 43.938 0 01-.375-5.688c0-2.166.167-4.291.5-6.374a39.864 39.864 0 011.5-5.938c.667-1.833 1.458-3.48 2.375-4.938.917-1.5 1.917-2.729 3-3.687 1.292-1.167 2.667-2 4.125-2.5 1.458-.542 3.125-.813 5-.813zm-.438 1.812c-3 0-5.27 1.958-6.812 5.875-1.542 3.917-2.313 9.604-2.313 17.063 0 15.041 3.084 22.562 9.25 22.562 3.042 0 5.334-1.854 6.875-5.563 1.584-3.75 2.375-9.312 2.375-16.687 0-7.75-.791-13.563-2.375-17.438-1.541-3.874-3.875-5.812-7-5.812zM45.626 42.5c2.125.375 3.98.77 5.563 1.188 1.624.416 3.041.874 4.25 1.374 1.25.5 2.333 1.063 3.25 1.688a18.824 18.824 0 012.687 2.125c.875.917 1.604 1.813 2.188 2.688A14.422 14.422 0 0165 54.313c.375.916.646 1.916.813 3 .166 1.041.25 2.187.25 3.437 0 5.375-1.563 9.604-4.688 12.688-1.833 1.833-4.02 3.229-6.563 4.187-2.5.917-5.25 1.375-8.25 1.375-2.666 0-4.77-.396-6.312-1.188-1.5-.791-2.25-1.854-2.25-3.187 0-1.792.98-2.688 2.938-2.688.833 0 1.666.188 2.5.563.833.333 1.812.938 2.937 1.813 1.125.791 2.02 1.333 2.688 1.624a5.095 5.095 0 002.062.438c1.417 0 2.73-.313 3.938-.938a9.729 9.729 0 003.124-2.562c.917-1.125 1.626-2.417 2.126-3.875.5-1.458.75-3.042.75-4.75 0-3.708-1-6.688-3-8.938-2-2.291-5.146-4.104-9.438-5.437A48.264 48.264 0 0044.562 49a16.988 16.988 0 00-3.437-.375c-.583 0-.875-.188-.875-.563 0-.208.02-.333.063-.374l7.75-16.938H63c.75 0 1.333-.104 1.75-.313.458-.25.98-.75 1.563-1.5l.624.5-2.75 6.375a1.437 1.437 0 01-.5.5c-.166.084-.541.126-1.124.126H48.624l-3 6.062z" fill="#98784D"/><path fill="#fff" d="M36 62h74v25H36z"/><path d="M46.143 74.01h-5.838L38.688 78h-2.016l6.636-15.813h.126L50.07 78h-2.352l-1.575-3.99zm-.693-1.764l-2.163-5.544-2.247 5.544h4.41zm14.877 4.935a4.366 4.366 0 01-1.407.756 5.027 5.027 0 01-1.639.273c-.938 0-1.77-.189-2.498-.567a4.192 4.192 0 01-1.68-1.596c-.392-.7-.589-1.505-.589-2.415 0-.896.21-1.687.63-2.373.42-.7.98-1.239 1.68-1.617a4.699 4.699 0 012.269-.567c1.33 0 2.428.364 3.296 1.092l-.986 1.281a3.981 3.981 0 00-.966-.525 2.987 2.987 0 00-1.176-.231 2.68 2.68 0 00-1.428.399c-.42.252-.756.602-1.008 1.05a3.128 3.128 0 00-.358 1.491c0 .546.127 1.043.379 1.491a2.945 2.945 0 002.604 1.47c.714 0 1.337-.21 1.869-.63l1.008 1.218zm10.627 0a4.366 4.366 0 01-1.407.756 5.027 5.027 0 01-1.638.273c-.938 0-1.771-.189-2.5-.567a4.192 4.192 0 01-1.68-1.596c-.391-.7-.587-1.505-.587-2.415 0-.896.21-1.687.63-2.373.42-.7.98-1.239 1.68-1.617a4.699 4.699 0 012.268-.567c1.33 0 2.429.364 3.297 1.092l-.987 1.281a3.981 3.981 0 00-.966-.525 2.987 2.987 0 00-1.176-.231 2.68 2.68 0 00-1.428.399c-.42.252-.756.602-1.008 1.05a3.128 3.128 0 00-.357 1.491c0 .546.126 1.043.378 1.491a2.945 2.945 0 002.604 1.47c.714 0 1.337-.21 1.869-.63l1.008 1.218zm7.645-.651c.728 0 1.435-.252 2.12-.756l.904 1.449a6.307 6.307 0 01-1.512.735 5.147 5.147 0 01-1.554.252c-.966 0-1.813-.196-2.541-.588a4.294 4.294 0 01-1.66-1.659c-.391-.7-.587-1.491-.587-2.373 0-.854.21-1.631.63-2.331a4.624 4.624 0 011.764-1.68 4.86 4.86 0 012.436-.63c1.134 0 2.079.336 2.835 1.008.77.658 1.295 1.582 1.575 2.772l-6.888 2.415c.252.434.588.777 1.008 1.029.434.238.924.357 1.47.357zm-.147-6.027c-.798 0-1.456.28-1.974.84-.518.56-.777 1.274-.777 2.142 0 .21.007.371.02.483l5.062-1.869a2.852 2.852 0 00-.903-1.155c-.378-.294-.854-.441-1.428-.441zm10.49 7.686c-.644 0-1.26-.112-1.848-.336a3.42 3.42 0 01-1.407-.987l.84-1.134c.35.336.714.595 1.092.777a2.73 2.73 0 001.155.273c.462 0 .84-.091 1.134-.273.294-.182.441-.462.441-.84 0-.294-.091-.532-.273-.714a1.665 1.665 0 00-.63-.399c-.224-.084-.609-.21-1.155-.378-1.484-.476-2.226-1.323-2.226-2.541 0-.728.266-1.351.798-1.869.546-.518 1.302-.777 2.268-.777.616 0 1.162.077 1.638.231a3.99 3.99 0 011.323.735l-.777 1.197a2.369 2.369 0 00-.861-.567 2.85 2.85 0 00-.966-.231c-.392 0-.728.098-1.008.294a.856.856 0 00-.42.756c0 .266.091.49.273.672.182.168.371.294.567.378.196.07.581.196 1.155.378.714.238 1.267.546 1.659.924.406.378.609.889.609 1.533 0 .84-.294 1.533-.882 2.079-.588.546-1.421.819-2.499.819zm9.622 0c-.644 0-1.26-.112-1.848-.336a3.42 3.42 0 01-1.407-.987l.84-1.134c.35.336.714.595 1.092.777a2.73 2.73 0 001.155.273c.462 0 .84-.091 1.134-.273.294-.182.441-.462.441-.84 0-.294-.09-.532-.273-.714a1.665 1.665 0 00-.63-.399c-.224-.084-.609-.21-1.155-.378-1.484-.476-2.226-1.323-2.226-2.541 0-.728.266-1.351.798-1.869.546-.518 1.302-.777 2.268-.777.616 0 1.162.077 1.638.231a3.99 3.99 0 011.323.735l-.777 1.197a2.369 2.369 0 00-.861-.567 2.847 2.847 0 00-.966-.231c-.392 0-.728.098-1.008.294a.856.856 0 00-.42.756c0 .266.091.49.273.672.182.168.371.294.567.378.196.07.581.196 1.155.378.714.238 1.267.546 1.659.924.406.378.609.889.609 1.533 0 .84-.294 1.533-.882 2.079-.588.546-1.42.819-2.499.819z" fill="#444"/></svg>