<svg width="115" height="103" fill="none" xmlns="http://www.w3.org/2000/svg"><path d="M18.125 29.813c2.292 0 4.396.604 6.313 1.812 1.958 1.167 3.645 2.833 5.062 5 1.417 2.167 2.5 4.77 3.25 7.813.792 3 1.188 6.333 1.188 10 0 2.25-.167 4.437-.5 6.562-.334 2.125-.813 4.104-1.438 5.938-.625 1.833-1.396 3.5-2.313 5-.875 1.5-1.854 2.729-2.937 3.687-2.5 2.25-5.48 3.375-8.938 3.375-2.208 0-4.229-.438-6.062-1.313-1.792-.916-3.354-2.229-4.688-3.937-.791-1.042-1.52-2.292-2.187-3.75a38.394 38.394 0 01-1.75-4.813A54.54 54.54 0 012 59.75a43.938 43.938 0 01-.375-5.688c0-2.166.167-4.291.5-6.374a39.864 39.864 0 011.5-5.938c.667-1.833 1.458-3.48 2.375-4.938.917-1.5 1.917-2.729 3-3.687 1.292-1.167 2.667-2 4.125-2.5 1.458-.542 3.125-.813 5-.813zm-.438 1.812c-3 0-5.27 1.958-6.812 5.875-1.542 3.917-2.313 9.604-2.313 17.063 0 15.041 3.084 22.562 9.25 22.562 3.042 0 5.334-1.854 6.875-5.563 1.584-3.75 2.375-9.312 2.375-16.687 0-7.75-.791-13.563-2.375-17.438-1.541-3.874-3.875-5.812-7-5.812zm50-1.25c-2.833.458-5.437 1.27-7.812 2.438-2.375 1.166-4.48 2.624-6.313 4.374a24.159 24.159 0 00-4.5 6.063C47.855 45.5 47 47.98 46.5 50.688a67.19 67.19 0 012.875-1.626c.792-.416 1.5-.75 2.125-1a8.86 8.86 0 011.938-.5 16.216 16.216 0 012.124-.124c2.084 0 3.959.354 5.626 1.062a10.986 10.986 0 014.25 3c1.166 1.292 2.062 2.875 2.687 4.75.625 1.833.938 3.896.938 6.188 0 2.458-.376 4.708-1.126 6.75-.708 2-1.729 3.729-3.062 5.187-1.292 1.458-2.875 2.604-4.75 3.438-1.833.791-3.854 1.187-6.063 1.187-2.333 0-4.479-.438-6.437-1.313a13.508 13.508 0 01-4.875-3.937c-1.458-1.792-2.604-4.083-3.438-6.875a32.36 32.36 0 01-1.187-8.75c0-4.917 1.042-9.375 3.125-13.375 2.125-4.042 5.208-7.458 9.25-10.25a33.902 33.902 0 013.625-2.125 29.322 29.322 0 013.75-1.5c1.333-.417 2.77-.75 4.313-1a94.7 94.7 0 015.312-.688l.188 1.188zm-15 20.375c-1.124 0-2.229.167-3.312.5-1.083.292-1.98.73-2.688 1.313-1.291 1-1.937 3.145-1.937 6.437 0 5.708.875 10.146 2.625 13.313 1.792 3.124 4.292 4.687 7.5 4.687 2.5 0 4.417-1.042 5.75-3.125 1.333-2.083 2-5.083 2-9 0-4.542-.854-8.02-2.563-10.438-1.666-2.458-4.124-3.687-7.374-3.687z" fill="#98784D"/><path fill="#fff" d="M36 59h79v24H36z"/><path d="M50.091 76.698c-.462.364-1.19.7-2.184 1.008-.98.308-1.89.462-2.73.462-1.582 0-2.975-.322-4.179-.966-1.204-.658-2.135-1.554-2.793-2.688-.644-1.134-.966-2.408-.966-3.822 0-1.652.35-3.08 1.05-4.284.7-1.218 1.645-2.149 2.835-2.793 1.19-.644 2.492-.966 3.906-.966.854 0 1.659.105 2.415.315a8.58 8.58 0 012.037.798l-.672 1.869c-.448-.252-1.015-.469-1.701-.651-.672-.196-1.281-.294-1.827-.294-1.176 0-2.219.238-3.129.714a5.026 5.026 0 00-2.079 2.037c-.49.882-.735 1.911-.735 3.087 0 1.092.245 2.065.735 2.919a5.1 5.1 0 002.079 1.995c.896.462 1.918.693 3.066.693.532 0 1.05-.049 1.554-.147.504-.112.924-.266 1.26-.462v-3.003h-3.024v-1.953h5.082v6.132zm13.376-7.392V78h-1.953v-1.428c-.308.406-.756.784-1.344 1.134-.588.336-1.253.504-1.995.504-.826 0-1.575-.175-2.247-.525a4.055 4.055 0 01-1.575-1.575c-.378-.686-.567-1.505-.567-2.457s.196-1.778.588-2.478c.406-.714.945-1.26 1.617-1.638a4.49 4.49 0 012.268-.588c.742 0 1.386.161 1.932.483.546.322.987.742 1.323 1.26l.147-1.386h1.806zM58.7 76.593c.714 0 1.323-.196 1.827-.588.518-.406.847-.952.987-1.638v-1.722a2.632 2.632 0 00-1.05-1.491 3 3 0 00-1.827-.588c-.518 0-1.001.126-1.449.378a2.858 2.858 0 00-1.05 1.071c-.252.448-.378.959-.378 1.533 0 .56.133 1.071.399 1.533.266.462.623.833 1.071 1.113.448.266.938.399 1.47.399zm11.17-14.868V78h-1.953V61.725h1.953zm6.403 0V78H74.32V61.725h1.953zm8.523 14.805c.728 0 1.435-.252 2.121-.756l.903 1.449a6.307 6.307 0 01-1.512.735 5.147 5.147 0 01-1.554.252c-.966 0-1.813-.196-2.54-.588a4.294 4.294 0 01-1.66-1.659c-.392-.7-.588-1.491-.588-2.373 0-.854.21-1.631.63-2.331a4.624 4.624 0 011.764-1.68 4.86 4.86 0 012.436-.63c1.134 0 2.08.336 2.835 1.008.77.658 1.295 1.582 1.575 2.772l-6.888 2.415c.252.434.588.777 1.008 1.029.434.238.924.357 1.47.357zm-.147-6.027c-.798 0-1.456.28-1.974.84-.518.56-.777 1.274-.777 2.142 0 .21.007.371.021.483l5.061-1.869a2.852 2.852 0 00-.903-1.155c-.378-.294-.854-.441-1.428-.441zm9.923.861a3.94 3.94 0 01.945-1.26c.42-.364.861-.644 1.323-.84.462-.196.868-.301 1.218-.315l-.084 1.953a3.25 3.25 0 00-1.722.378c-.504.28-.903.672-1.197 1.176-.28.49-.42 1.015-.42 1.575V78h-1.953v-8.694h1.743l.147 2.058zm15.33-2.058l-5.607 12.873h-1.932l1.995-4.473-4.032-8.4h2.205l2.814 6.195 2.751-6.195h1.806z" fill="#444"/></svg>