<svg width="125" height="103" viewBox="0 0 125 103" fill="none" xmlns="http://www.w3.org/2000/svg">
<path d="M18.125 29.8125C20.4167 29.8125 22.5208 30.4167 24.4375 31.625C26.3958 32.7917 28.0833 34.4583 29.5 36.625C30.9167 38.7917 32 41.3958 32.75 44.4375C33.5417 47.4375 33.9375 50.7708 33.9375 54.4375C33.9375 56.6875 33.7708 58.875 33.4375 61C33.1042 63.125 32.625 65.1042 32 66.9375C31.375 68.7708 30.6042 70.4375 29.6875 71.9375C28.8125 73.4375 27.8333 74.6667 26.75 75.625C24.25 77.875 21.2708 79 17.8125 79C15.6042 79 13.5833 78.5625 11.75 77.6875C9.95833 76.7708 8.39583 75.4583 7.0625 73.75C6.27083 72.7083 5.54167 71.4583 4.875 70C4.20833 68.5 3.625 66.8958 3.125 65.1875C2.66667 63.4375 2.29167 61.625 2 59.75C1.75 57.8333 1.625 55.9375 1.625 54.0625C1.625 51.8958 1.79167 49.7708 2.125 47.6875C2.5 45.5625 3 43.5833 3.625 41.75C4.29167 39.9167 5.08333 38.2708 6 36.8125C6.91667 35.3125 7.91667 34.0833 9 33.125C10.2917 31.9583 11.6667 31.125 13.125 30.625C14.5833 30.0833 16.25 29.8125 18.125 29.8125ZM17.6875 31.625C14.6875 31.625 12.4167 33.5833 10.875 37.5C9.33333 41.4167 8.5625 47.1042 8.5625 54.5625C8.5625 69.6042 11.6458 77.125 17.8125 77.125C20.8542 77.125 23.1458 75.2708 24.6875 71.5625C26.2708 67.8125 27.0625 62.25 27.0625 54.875C27.0625 47.125 26.2708 41.3125 24.6875 37.4375C23.1458 33.5625 20.8125 31.625 17.6875 31.625ZM57 29.9375V72.75C57 73.625 57.0833 74.3333 57.25 74.875C57.4167 75.375 57.75 75.7917 58.25 76.125C58.75 76.4167 59.4375 76.625 60.3125 76.75C61.2292 76.875 62.3958 76.9583 63.8125 77V78H44.125V77C45.5 76.9583 46.625 76.8333 47.5 76.625C48.375 76.4167 49.0625 76.1042 49.5625 75.6875C50.0625 75.2708 50.3958 74.7292 50.5625 74.0625C50.7708 73.3542 50.875 72.4583 50.875 71.375V39.125C50.875 36.8333 50.1667 35.6875 48.75 35.6875C48 35.6875 46.9167 35.9583 45.5 36.5L43.5625 37.3125V36.25L56.375 29.8125L57 29.9375Z" fill="#98784D"/>
<rect x="36" y="58" width="89" height="25" fill="white"/>
<path d="M51.335 74.866C50.845 75.188 50.222 75.489 49.466 75.769C48.724 76.035 47.912 76.168 47.03 76.168C45.476 76.168 44.104 75.825 42.914 75.139C41.738 74.453 40.828 73.529 40.184 72.367C39.554 71.205 39.239 69.924 39.239 68.524C39.239 67.026 39.561 65.682 40.205 64.492C40.849 63.288 41.738 62.35 42.872 61.678C44.02 60.992 45.315 60.649 46.757 60.649C47.611 60.649 48.409 60.761 49.151 60.985C49.893 61.209 50.558 61.503 51.146 61.867L50.327 63.778C49.165 62.994 47.996 62.602 46.82 62.602C45.84 62.602 44.93 62.861 44.09 63.379C43.264 63.897 42.599 64.604 42.095 65.5C41.605 66.382 41.36 67.355 41.36 68.419C41.36 69.511 41.584 70.498 42.032 71.38C42.494 72.262 43.145 72.955 43.985 73.459C44.839 73.949 45.819 74.194 46.925 74.194C48.283 74.194 49.466 73.809 50.474 73.039L51.335 74.866ZM54.5761 71.569C54.5761 70.715 54.7791 69.938 55.1851 69.238C55.6051 68.524 56.1791 67.964 56.9071 67.558C57.6491 67.152 58.4821 66.949 59.4061 66.949C60.3301 66.949 61.1491 67.152 61.8631 67.558C62.5911 67.964 63.1511 68.517 63.5431 69.217C63.9491 69.917 64.1521 70.701 64.1521 71.569C64.1521 72.437 63.9491 73.228 63.5431 73.942C63.1511 74.642 62.5911 75.195 61.8631 75.601C61.1351 76.007 60.3021 76.21 59.3641 76.21C58.4541 76.21 57.6351 76.021 56.9071 75.643C56.1791 75.251 55.6051 74.705 55.1851 74.005C54.7791 73.305 54.5761 72.493 54.5761 71.569ZM56.5501 71.59C56.5501 72.136 56.6691 72.64 56.9071 73.102C57.1591 73.564 57.4951 73.928 57.9151 74.194C58.3491 74.46 58.8251 74.593 59.3431 74.593C60.1551 74.593 60.8271 74.306 61.3591 73.732C61.8911 73.158 62.1571 72.444 62.1571 71.59C62.1571 70.736 61.8911 70.022 61.3591 69.448C60.8271 68.86 60.1551 68.566 59.3431 68.566C58.8111 68.566 58.3351 68.706 57.9151 68.986C57.4951 69.252 57.1591 69.616 56.9071 70.078C56.6691 70.54 56.5501 71.044 56.5501 71.59ZM73.2224 66.97C74.0344 66.97 74.7064 67.215 75.2384 67.705C75.7704 68.181 76.0434 68.804 76.0574 69.574V76H74.0834V70.246C74.0554 69.756 73.9084 69.371 73.6424 69.091C73.3764 68.811 72.9774 68.664 72.4454 68.65C71.6754 68.65 71.0384 68.958 70.5344 69.574C70.0304 70.19 69.7784 70.974 69.7784 71.926V76H67.8254V67.306H69.5894L69.7154 68.986C70.0234 68.356 70.4854 67.866 71.1014 67.516C71.7174 67.152 72.4244 66.97 73.2224 66.97ZM87.5388 75.181C87.1468 75.503 86.6778 75.755 86.1318 75.937C85.5998 76.119 85.0538 76.21 84.4938 76.21C83.5558 76.21 82.7228 76.021 81.9948 75.643C81.2808 75.265 80.7208 74.733 80.3148 74.047C79.9228 73.347 79.7268 72.542 79.7268 71.632C79.7268 70.736 79.9368 69.945 80.3568 69.259C80.7768 68.559 81.3368 68.02 82.0368 67.642C82.7368 67.264 83.4928 67.075 84.3048 67.075C85.6348 67.075 86.7338 67.439 87.6018 68.167L86.6148 69.448C86.3348 69.238 86.0128 69.063 85.6488 68.923C85.2848 68.769 84.8928 68.692 84.4728 68.692C83.9548 68.692 83.4788 68.825 83.0448 69.091C82.6248 69.343 82.2888 69.693 82.0368 70.141C81.7988 70.589 81.6798 71.086 81.6798 71.632C81.6798 72.178 81.8058 72.675 82.0578 73.123C82.3238 73.571 82.6808 73.928 83.1288 74.194C83.5768 74.46 84.0878 74.593 84.6618 74.593C85.3758 74.593 85.9988 74.383 86.5308 73.963L87.5388 75.181ZM95.184 74.53C95.912 74.53 96.619 74.278 97.305 73.774L98.208 75.223C97.746 75.531 97.242 75.776 96.696 75.958C96.164 76.126 95.646 76.21 95.142 76.21C94.176 76.21 93.329 76.014 92.601 75.622C91.887 75.216 91.334 74.663 90.942 73.963C90.55 73.263 90.354 72.472 90.354 71.59C90.354 70.736 90.564 69.959 90.984 69.259C91.418 68.545 92.006 67.985 92.748 67.579C93.49 67.159 94.302 66.949 95.184 66.949C96.318 66.949 97.263 67.285 98.019 67.957C98.789 68.615 99.314 69.539 99.594 70.729L92.706 73.144C92.958 73.578 93.294 73.921 93.714 74.173C94.148 74.411 94.638 74.53 95.184 74.53ZM95.037 68.503C94.239 68.503 93.581 68.783 93.063 69.343C92.545 69.903 92.286 70.617 92.286 71.485C92.286 71.695 92.293 71.856 92.307 71.968L97.368 70.099C97.158 69.623 96.857 69.238 96.465 68.944C96.087 68.65 95.611 68.503 95.037 68.503ZM108.572 66.949C109.384 66.949 110.119 67.145 110.777 67.537C111.435 67.929 111.953 68.482 112.331 69.196C112.709 69.896 112.898 70.708 112.898 71.632C112.898 72.542 112.695 73.347 112.289 74.047C111.883 74.733 111.323 75.265 110.609 75.643C109.895 76.021 109.097 76.21 108.215 76.21C107.585 76.21 106.983 76.077 106.409 75.811C105.835 75.531 105.373 75.16 105.023 74.698V80.179H103.07V67.159H104.771L104.939 68.629C105.387 68.125 105.919 67.719 106.535 67.411C107.165 67.103 107.844 66.949 108.572 66.949ZM107.837 74.635C108.383 74.635 108.887 74.509 109.349 74.257C109.825 73.991 110.203 73.634 110.483 73.186C110.763 72.724 110.903 72.213 110.903 71.653C110.903 71.079 110.77 70.561 110.504 70.099C110.252 69.637 109.902 69.273 109.454 69.007C109.006 68.741 108.509 68.608 107.963 68.608C107.221 68.608 106.584 68.818 106.052 69.238C105.534 69.644 105.191 70.197 105.023 70.897V72.346C105.135 73.018 105.45 73.571 105.968 74.005C106.5 74.425 107.123 74.635 107.837 74.635ZM119.382 63.484V67.327H121.755V68.881H119.382V76H117.408V68.881H115.812V67.327H117.408V63.484H119.382Z" fill="#444444"/>
</svg>
