<svg width="101" height="103" viewBox="0 0 101 103" fill="none" xmlns="http://www.w3.org/2000/svg">
<path d="M18.125 29.8125C20.4167 29.8125 22.5208 30.4167 24.4375 31.625C26.3958 32.7917 28.0833 34.4583 29.5 36.625C30.9167 38.7917 32 41.3958 32.75 44.4375C33.5417 47.4375 33.9375 50.7708 33.9375 54.4375C33.9375 56.6875 33.7708 58.875 33.4375 61C33.1042 63.125 32.625 65.1042 32 66.9375C31.375 68.7708 30.6042 70.4375 29.6875 71.9375C28.8125 73.4375 27.8333 74.6667 26.75 75.625C24.25 77.875 21.2708 79 17.8125 79C15.6042 79 13.5833 78.5625 11.75 77.6875C9.95833 76.7708 8.39583 75.4583 7.0625 73.75C6.27083 72.7083 5.54167 71.4583 4.875 70C4.20833 68.5 3.625 66.8958 3.125 65.1875C2.66667 63.4375 2.29167 61.625 2 59.75C1.75 57.8333 1.625 55.9375 1.625 54.0625C1.625 51.8958 1.79167 49.7708 2.125 47.6875C2.5 45.5625 3 43.5833 3.625 41.75C4.29167 39.9167 5.08333 38.2708 6 36.8125C6.91667 35.3125 7.91667 34.0833 9 33.125C10.2917 31.9583 11.6667 31.125 13.125 30.625C14.5833 30.0833 16.25 29.8125 18.125 29.8125ZM17.6875 31.625C14.6875 31.625 12.4167 33.5833 10.875 37.5C9.33333 41.4167 8.5625 47.1042 8.5625 54.5625C8.5625 69.6042 11.6458 77.125 17.8125 77.125C20.8542 77.125 23.1458 75.2708 24.6875 71.5625C26.2708 67.8125 27.0625 62.25 27.0625 54.875C27.0625 47.125 26.2708 41.3125 24.6875 37.4375C23.1458 33.5625 20.8125 31.625 17.6875 31.625ZM65.625 78H37.8125V77.125L50.5 63.6875C53.5 60.4792 55.7917 57.2917 57.375 54.125C59 50.9583 59.8125 47.9792 59.8125 45.1875C59.8125 42.1458 58.8958 39.7083 57.0625 37.875C55.2708 36 52.8125 35.0625 49.6875 35.0625C48.4375 35.0625 47.3333 35.2292 46.375 35.5625C45.4167 35.8542 44.5417 36.375 43.75 37.125C42.9583 37.8333 42.2083 38.7708 41.5 39.9375C40.7917 41.1042 40.0833 42.5625 39.375 44.3125L37.875 44C38.1667 42.75 38.4583 41.6458 38.75 40.6875C39.0833 39.7292 39.4167 38.875 39.75 38.125C40.125 37.375 40.5208 36.6875 40.9375 36.0625C41.3542 35.4375 41.8542 34.8125 42.4375 34.1875C43.7708 32.7708 45.3125 31.6875 47.0625 30.9375C48.8542 30.1875 50.7292 29.8125 52.6875 29.8125C54.5625 29.8125 56.2917 30.1458 57.875 30.8125C59.5 31.4375 60.8958 32.3125 62.0625 33.4375C63.2708 34.5625 64.2083 35.8958 64.875 37.4375C65.5833 38.9375 65.9375 40.5625 65.9375 42.3125C65.9375 45.1875 65.1875 48.0208 63.6875 50.8125C62.2292 53.6042 59.9375 56.6875 56.8125 60.0625L44.8125 72.5625H61.8125C62.6042 72.5625 63.2917 72.5208 63.875 72.4375C64.4583 72.3125 64.9792 72.0833 65.4375 71.75C65.9375 71.4167 66.4167 70.9375 66.875 70.3125C67.375 69.6875 67.9583 68.8542 68.625 67.8125L69.5625 68.25L65.625 78Z" fill="#98784D"/>
<rect x="36" y="60" width="65" height="22" fill="white"/>
<path d="M57.283 61.334V77H55.267V67.172L49.681 75.089H49.639L44.158 67.445V77H42.184V61.334H42.205L49.681 71.918L57.262 61.334H57.283ZM66.2869 75.53C67.0149 75.53 67.7219 75.278 68.4079 74.774L69.3109 76.223C68.8489 76.531 68.3449 76.776 67.7989 76.958C67.2669 77.126 66.7489 77.21 66.2449 77.21C65.2789 77.21 64.4319 77.014 63.7039 76.622C62.9899 76.216 62.4369 75.663 62.0449 74.963C61.6529 74.263 61.4569 73.472 61.4569 72.59C61.4569 71.736 61.6669 70.959 62.0869 70.259C62.5209 69.545 63.1089 68.985 63.8509 68.579C64.5929 68.159 65.4049 67.949 66.2869 67.949C67.4209 67.949 68.3659 68.285 69.1219 68.957C69.8919 69.615 70.4169 70.539 70.6969 71.729L63.8089 74.144C64.0609 74.578 64.3969 74.921 64.8169 75.173C65.2509 75.411 65.7409 75.53 66.2869 75.53ZM66.1399 69.503C65.3419 69.503 64.6839 69.783 64.1659 70.343C63.6479 70.903 63.3889 71.617 63.3889 72.485C63.3889 72.695 63.3959 72.856 63.4099 72.968L68.4709 71.099C68.2609 70.623 67.9599 70.238 67.5679 69.944C67.1899 69.65 66.7139 69.503 66.1399 69.503ZM79.5701 67.97C80.3821 67.97 81.0541 68.215 81.5861 68.705C82.1181 69.181 82.3911 69.804 82.4051 70.574V77H80.4311V71.246C80.4031 70.756 80.2561 70.371 79.9901 70.091C79.7241 69.811 79.3251 69.664 78.7931 69.65C78.0231 69.65 77.3861 69.958 76.8821 70.574C76.3781 71.19 76.1261 71.974 76.1261 72.926V77H74.1731V68.306H75.9371L76.0631 69.986C76.3711 69.356 76.8331 68.866 77.4491 68.516C78.0651 68.152 78.7721 67.97 79.5701 67.97ZM94.9155 68.306V77H93.1515L93.0255 75.341C92.7315 75.929 92.2765 76.412 91.6605 76.79C91.0445 77.154 90.3585 77.336 89.6025 77.336C88.8045 77.336 88.1465 77.098 87.6285 76.622C87.1245 76.132 86.8585 75.502 86.8305 74.732V68.306H88.7835V74.039C88.8115 74.529 88.9515 74.921 89.2035 75.215C89.4695 75.495 89.8615 75.642 90.3795 75.656C90.8555 75.656 91.2895 75.516 91.6815 75.236C92.0735 74.942 92.3815 74.543 92.6055 74.039C92.8435 73.535 92.9625 72.975 92.9625 72.359V68.306H94.9155Z" fill="#444444"/>
</svg>
