<svg width="138" height="52" viewBox="0 0 138 52" fill="none" xmlns="http://www.w3.org/2000/svg">
<path d="M39.184 31.817H43.342C45.232 31.817 46.793 32.195 48.025 32.951C49.271 33.693 50.174 34.659 50.734 35.849C51.308 37.025 51.595 38.271 51.595 39.587C51.595 41.057 51.252 42.359 50.566 43.493C49.88 44.613 48.963 45.481 47.815 46.097C46.667 46.699 45.421 47 44.077 47H39.184V31.817ZM43.678 45.026C44.798 45.026 45.799 44.809 46.681 44.375C47.563 43.927 48.249 43.283 48.739 42.443C49.243 41.603 49.495 40.602 49.495 39.44C49.495 38.25 49.236 37.228 48.718 36.374C48.2 35.52 47.507 34.876 46.639 34.442C45.785 33.994 44.861 33.77 43.867 33.77H41.221V45.026H43.678ZM59.657 45.53C60.385 45.53 61.092 45.278 61.778 44.774L62.681 46.223C62.219 46.531 61.715 46.776 61.169 46.958C60.637 47.126 60.119 47.21 59.615 47.21C58.649 47.21 57.802 47.014 57.074 46.622C56.36 46.216 55.807 45.663 55.415 44.963C55.023 44.263 54.827 43.472 54.827 42.59C54.827 41.736 55.037 40.959 55.457 40.259C55.891 39.545 56.479 38.985 57.221 38.579C57.963 38.159 58.775 37.949 59.657 37.949C60.791 37.949 61.736 38.285 62.492 38.957C63.262 39.615 63.787 40.539 64.067 41.729L57.179 44.144C57.431 44.578 57.767 44.921 58.187 45.173C58.621 45.411 59.111 45.53 59.657 45.53ZM59.51 39.503C58.712 39.503 58.054 39.783 57.536 40.343C57.018 40.903 56.759 41.617 56.759 42.485C56.759 42.695 56.766 42.856 56.78 42.968L61.841 41.099C61.631 40.623 61.33 40.238 60.938 39.944C60.56 39.65 60.084 39.503 59.51 39.503ZM70.0002 47.189C69.3562 47.189 68.7402 47.077 68.1522 46.853C67.5782 46.629 67.1092 46.3 66.7452 45.866L67.5852 44.732C67.9352 45.068 68.2992 45.327 68.6772 45.509C69.0692 45.691 69.4542 45.782 69.8322 45.782C70.2942 45.782 70.6722 45.691 70.9662 45.509C71.2602 45.327 71.4072 45.047 71.4072 44.669C71.4072 44.375 71.3162 44.137 71.1342 43.955C70.9522 43.773 70.7422 43.64 70.5042 43.556C70.2802 43.472 69.8952 43.346 69.3492 43.178C67.8652 42.702 67.1232 41.855 67.1232 40.637C67.1232 39.909 67.3892 39.286 67.9212 38.768C68.4672 38.25 69.2232 37.991 70.1892 37.991C70.8052 37.991 71.3512 38.068 71.8272 38.222C72.3032 38.376 72.7442 38.621 73.1502 38.957L72.3732 40.154C72.1492 39.916 71.8622 39.727 71.5122 39.587C71.1762 39.447 70.8542 39.37 70.5462 39.356C70.1542 39.356 69.8182 39.454 69.5382 39.65C69.2582 39.832 69.1182 40.084 69.1182 40.406C69.1182 40.672 69.2092 40.896 69.3912 41.078C69.5732 41.246 69.7622 41.372 69.9582 41.456C70.1542 41.526 70.5392 41.652 71.1132 41.834C71.8272 42.072 72.3802 42.38 72.7722 42.758C73.1782 43.136 73.3812 43.647 73.3812 44.291C73.3812 45.131 73.0872 45.824 72.4992 46.37C71.9112 46.916 71.0782 47.189 70.0002 47.189ZM79.1185 38.306V47H77.1655V38.306H79.1185ZM77.0185 35.177C77.0185 34.869 77.1375 34.61 77.3755 34.4C77.6135 34.19 77.8865 34.085 78.1945 34.085C78.5025 34.085 78.7685 34.19 78.9925 34.4C79.2305 34.61 79.3495 34.869 79.3495 35.177C79.3495 35.485 79.2305 35.744 78.9925 35.954C78.7685 36.164 78.5025 36.269 78.1945 36.269C77.8865 36.269 77.6135 36.164 77.3755 35.954C77.1375 35.744 77.0185 35.485 77.0185 35.177ZM92.745 38.306V47.063C92.745 47.861 92.542 48.582 92.136 49.226C91.73 49.87 91.149 50.381 90.393 50.759C89.651 51.137 88.776 51.326 87.768 51.326C86.886 51.326 86.123 51.179 85.479 50.885C84.849 50.591 84.212 50.157 83.568 49.583L84.723 48.239C85.199 48.687 85.675 49.023 86.151 49.247C86.627 49.485 87.152 49.604 87.726 49.604C88.692 49.604 89.434 49.373 89.952 48.911C90.484 48.449 90.757 47.826 90.771 47.042L90.792 45.404C90.47 45.95 89.994 46.391 89.364 46.727C88.748 47.049 88.034 47.21 87.222 47.21C86.424 47.21 85.689 47.007 85.017 46.601C84.345 46.195 83.806 45.642 83.4 44.942C83.008 44.242 82.812 43.465 82.812 42.611C82.812 41.729 83.015 40.938 83.421 40.238C83.841 39.524 84.401 38.964 85.101 38.558C85.801 38.152 86.55 37.949 87.348 37.949C88.09 37.949 88.776 38.096 89.406 38.39C90.036 38.684 90.505 39.062 90.813 39.524L90.96 38.306H92.745ZM87.789 45.593C88.531 45.593 89.175 45.39 89.721 44.984C90.267 44.578 90.624 44.046 90.792 43.388V41.666C90.596 41.036 90.225 40.532 89.679 40.154C89.133 39.762 88.503 39.566 87.789 39.566C86.935 39.566 86.221 39.846 85.647 40.406C85.073 40.966 84.786 41.68 84.786 42.548C84.786 43.108 84.919 43.619 85.185 44.081C85.451 44.543 85.815 44.914 86.277 45.194C86.739 45.46 87.243 45.593 87.789 45.593ZM102.586 37.97C103.398 37.97 104.07 38.215 104.602 38.705C105.134 39.181 105.407 39.804 105.421 40.574V47H103.447V41.246C103.419 40.756 103.272 40.371 103.006 40.091C102.74 39.811 102.341 39.664 101.809 39.65C101.039 39.65 100.402 39.958 99.8983 40.574C99.3943 41.19 99.1423 41.974 99.1423 42.926V47H97.1893V38.306H98.9533L99.0793 39.986C99.3873 39.356 99.8493 38.866 100.465 38.516C101.081 38.152 101.788 37.97 102.586 37.97ZM113.921 45.53C114.649 45.53 115.356 45.278 116.042 44.774L116.945 46.223C116.483 46.531 115.979 46.776 115.433 46.958C114.901 47.126 114.383 47.21 113.879 47.21C112.913 47.21 112.066 47.014 111.338 46.622C110.624 46.216 110.071 45.663 109.679 44.963C109.287 44.263 109.091 43.472 109.091 42.59C109.091 41.736 109.301 40.959 109.721 40.259C110.155 39.545 110.743 38.985 111.485 38.579C112.227 38.159 113.039 37.949 113.921 37.949C115.055 37.949 116 38.285 116.756 38.957C117.526 39.615 118.051 40.539 118.331 41.729L111.443 44.144C111.695 44.578 112.031 44.921 112.451 45.173C112.885 45.411 113.375 45.53 113.921 45.53ZM113.774 39.503C112.976 39.503 112.318 39.783 111.8 40.343C111.282 40.903 111.023 41.617 111.023 42.485C111.023 42.695 111.03 42.856 111.044 42.968L116.105 41.099C115.895 40.623 115.594 40.238 115.202 39.944C114.824 39.65 114.348 39.503 113.774 39.503ZM123.697 40.364C123.921 39.888 124.236 39.468 124.642 39.104C125.062 38.74 125.503 38.46 125.965 38.264C126.427 38.068 126.833 37.963 127.183 37.949L127.099 39.902C126.469 39.874 125.895 40 125.377 40.28C124.873 40.56 124.474 40.952 124.18 41.456C123.9 41.946 123.76 42.471 123.76 43.031V47H121.807V38.306H123.55L123.697 40.364ZM133.209 47.189C132.565 47.189 131.949 47.077 131.361 46.853C130.787 46.629 130.318 46.3 129.954 45.866L130.794 44.732C131.144 45.068 131.508 45.327 131.886 45.509C132.278 45.691 132.663 45.782 133.041 45.782C133.503 45.782 133.881 45.691 134.175 45.509C134.469 45.327 134.616 45.047 134.616 44.669C134.616 44.375 134.525 44.137 134.343 43.955C134.161 43.773 133.951 43.64 133.713 43.556C133.489 43.472 133.104 43.346 132.558 43.178C131.074 42.702 130.332 41.855 130.332 40.637C130.332 39.909 130.598 39.286 131.13 38.768C131.676 38.25 132.432 37.991 133.398 37.991C134.014 37.991 134.56 38.068 135.036 38.222C135.512 38.376 135.953 38.621 136.359 38.957L135.582 40.154C135.358 39.916 135.071 39.727 134.721 39.587C134.385 39.447 134.063 39.37 133.755 39.356C133.363 39.356 133.027 39.454 132.747 39.65C132.467 39.832 132.327 40.084 132.327 40.406C132.327 40.672 132.418 40.896 132.6 41.078C132.782 41.246 132.971 41.372 133.167 41.456C133.363 41.526 133.748 41.652 134.322 41.834C135.036 42.072 135.589 42.38 135.981 42.758C136.387 43.136 136.59 43.647 136.59 44.291C136.59 45.131 136.296 45.824 135.708 46.37C135.12 46.916 134.287 47.189 133.209 47.189Z" fill="white"/>
<path fill-rule="evenodd" clip-rule="evenodd" d="M22.8125 1.8125C20.8958 0.604167 18.7917 0 16.5 0C14.625 0 12.9583 0.270833 11.5 0.8125C10.0417 1.3125 8.66667 2.14583 7.375 3.3125C6.29167 4.27083 5.29167 5.5 4.375 7C3.45833 8.45833 2.66667 10.1042 2 11.9375C1.375 13.7708 0.875 15.75 0.5 17.875C0.166667 19.9583 0 22.0833 0 24.25C0 26.125 0.125 28.0208 0.375 29.9375C0.666667 31.8125 1.04167 33.625 1.5 35.375C2 37.0833 2.58333 38.6875 3.25 40.1875C3.91667 41.6458 4.64583 42.8958 5.4375 43.9375C6.77083 45.6458 8.33333 46.9583 10.125 47.875C11.9583 48.75 13.9792 49.1875 16.1875 49.1875C19.6458 49.1875 22.625 48.0625 25.125 45.8125C26.2083 44.8542 27.1875 43.625 28.0625 42.125C28.9792 40.625 29.75 38.9583 30.375 37.125C31 35.2917 31.4792 33.3125 31.8125 31.1875C32.1458 29.0625 32.3125 26.875 32.3125 24.625C32.3125 20.9583 31.9167 17.625 31.125 14.625C30.375 11.5833 29.2917 8.97917 27.875 6.8125C26.4583 4.64583 24.7708 2.97917 22.8125 1.8125ZM9.25 7.6875C10.7917 3.77083 13.0625 1.8125 16.0625 1.8125C19.1875 1.8125 21.5208 3.75 23.0625 7.625C24.6458 11.5 25.4375 17.3125 25.4375 25.0625C25.4375 32.4375 24.6458 38 23.0625 41.75C21.5208 45.4583 19.2292 47.3125 16.1875 47.3125C10.0208 47.3125 6.9375 39.7917 6.9375 24.75C6.9375 17.2917 7.70833 11.6042 9.25 7.6875ZM48.0625 22.5625C47.1875 22.9375 46.1458 23.3333 44.9375 23.75V24.625C46.9792 24.625 48.5 24.6875 49.5 24.8125C50.5417 24.8958 51.4583 25.0833 52.25 25.375C54.5417 26.125 56.3333 27.4583 57.625 29.375C58.591 30.7636 59.207 32.3052 59.4732 34H64.7001C64.7334 33.5489 64.75 33.0906 64.75 32.625C64.75 30.75 64.4792 29.0208 63.9375 27.4375C63.4375 25.8125 62.6875 24.4583 61.6875 23.375C60.9375 22.5833 60.1458 21.9375 59.3125 21.4375C58.4792 20.8958 57.2708 20.2917 55.6875 19.625C56.9375 18.75 57.9792 17.9375 58.8125 17.1875C59.6875 16.3958 60.375 15.625 60.875 14.875C61.375 14.0833 61.7292 13.2708 61.9375 12.4375C62.1875 11.6042 62.3125 10.7083 62.3125 9.75C62.3125 6.79167 61.2917 4.4375 59.25 2.6875C57.25 0.895833 54.5833 0 51.25 0C47.7083 0 44.625 1.14583 42 3.4375C41.4583 3.9375 40.9792 4.4375 40.5625 4.9375C40.1458 5.4375 39.75 6 39.375 6.625C39.0417 7.25 38.6875 7.95833 38.3125 8.75C37.9792 9.54167 37.6042 10.4583 37.1875 11.5L38.3125 11.8125C39.7708 9.14583 41.3333 7.22917 43 6.0625C44.6667 4.85417 46.625 4.25 48.875 4.25C51.25 4.25 53.1458 4.95833 54.5625 6.375C56.0208 7.75 56.75 9.58333 56.75 11.875C56.75 13.125 56.5 14.375 56 15.625C55.5 16.8333 54.8125 17.8958 53.9375 18.8125C53.3958 19.3542 52.8542 19.8333 52.3125 20.25C51.7708 20.6667 51.1458 21.0625 50.4375 21.4375C49.7708 21.8125 48.9792 22.1875 48.0625 22.5625Z" fill="#98784D"/>
</svg>
