<svg width="162" height="128" viewBox="0 0 162 128" fill="none" xmlns="http://www.w3.org/2000/svg">
<path d="M22.6562 36.7656C25.5208 36.7656 28.151 37.5208 30.5469 39.0312C32.9948 40.4896 35.1042 42.5729 36.875 45.2812C38.6458 47.9896 40 51.2448 40.9375 55.0469C41.9271 58.7969 42.4219 62.9635 42.4219 67.5469C42.4219 70.3594 42.2135 73.0938 41.7969 75.75C41.3802 78.4062 40.7812 80.8802 40 83.1719C39.2188 85.4635 38.2552 87.5469 37.1094 89.4219C36.0156 91.2969 34.7917 92.8333 33.4375 94.0312C30.3125 96.8438 26.5885 98.25 22.2656 98.25C19.5052 98.25 16.9792 97.7031 14.6875 96.6094C12.4479 95.4635 10.4948 93.8229 8.82812 91.6875C7.83854 90.3854 6.92708 88.8229 6.09375 87C5.26042 85.125 4.53125 83.1198 3.90625 80.9844C3.33333 78.7969 2.86458 76.5312 2.5 74.1875C2.1875 71.7917 2.03125 69.4219 2.03125 67.0781C2.03125 64.3698 2.23958 61.7135 2.65625 59.1094C3.125 56.4531 3.75 53.9792 4.53125 51.6875C5.36458 49.3958 6.35417 47.3385 7.5 45.5156C8.64583 43.6406 9.89583 42.1042 11.25 40.9062C12.8646 39.4479 14.5833 38.4062 16.4062 37.7812C18.2292 37.1042 20.3125 36.7656 22.6562 36.7656ZM22.1094 39.0312C18.3594 39.0312 15.5208 41.4792 13.5938 46.375C11.6667 51.2708 10.7031 58.3802 10.7031 67.7031C10.7031 86.5052 14.5573 95.9062 22.2656 95.9062C26.0677 95.9062 28.9323 93.5885 30.8594 88.9531C32.8385 84.2656 33.8281 77.3125 33.8281 68.0938C33.8281 58.4062 32.8385 51.1406 30.8594 46.2969C28.9323 41.4531 26.0156 39.0312 22.1094 39.0312ZM58.2031 66.4531C59.7135 65.9323 61.0156 65.4375 62.1094 64.9688C63.2552 64.5 64.2448 64.0312 65.0781 63.5625C65.9635 63.0938 66.7448 62.599 67.4219 62.0781C68.099 61.5573 68.776 60.9583 69.4531 60.2812C70.5469 59.1354 71.4062 57.8073 72.0312 56.2969C72.6562 54.7344 72.9688 53.1719 72.9688 51.6094C72.9688 48.7448 72.0573 46.4531 70.2344 44.7344C68.4635 42.9635 66.0938 42.0781 63.125 42.0781C60.3125 42.0781 57.8646 42.8333 55.7812 44.3438C53.6979 45.8021 51.7448 48.1979 49.9219 51.5312L48.5156 51.1406C49.0365 49.8385 49.5052 48.6927 49.9219 47.7031C50.3906 46.7135 50.8333 45.8281 51.25 45.0469C51.7188 44.2656 52.2135 43.5625 52.7344 42.9375C53.2552 42.3125 53.8542 41.6875 54.5312 41.0625C57.8125 38.1979 61.6667 36.7656 66.0938 36.7656C70.2604 36.7656 73.5938 37.8854 76.0938 40.125C78.6458 42.3125 79.9219 45.2552 79.9219 48.9531C79.9219 50.151 79.7656 51.2708 79.4531 52.3125C79.1927 53.3542 78.75 54.3698 78.125 55.3594C77.5 56.2969 76.6406 57.2604 75.5469 58.25C74.5052 59.1875 73.2031 60.2031 71.6406 61.2969C73.6198 62.1302 75.1302 62.8854 76.1719 63.5625C77.2135 64.1875 78.2031 64.9948 79.1406 65.9844C80.3906 67.3385 81.3281 69.0312 81.9531 71.0625C82.6302 73.0417 82.9688 75.2031 82.9688 77.5469C82.9688 80.6719 82.3698 83.5365 81.1719 86.1406C80.026 88.7448 78.3333 90.9583 76.0938 92.7812C73.9062 94.4479 71.224 95.776 68.0469 96.7656C64.9219 97.7552 61.6927 98.25 58.3594 98.25C55.2865 98.25 52.8646 97.8073 51.0938 96.9219C49.3229 95.9844 48.4375 94.7344 48.4375 93.1719C48.4375 92.2344 48.724 91.4792 49.2969 90.9062C49.9219 90.3333 50.7552 90.0469 51.7969 90.0469C52.5781 90.0469 53.3854 90.2292 54.2188 90.5938C55.0521 90.9062 56.1198 91.4792 57.4219 92.3125C59.0885 93.3542 60.4427 94.0833 61.4844 94.5C62.5781 94.8646 63.75 95.0469 65 95.0469C66.6667 95.0469 68.2031 94.7083 69.6094 94.0312C71.0156 93.3542 72.2396 92.4427 73.2812 91.2969C74.3229 90.099 75.1302 88.6927 75.7031 87.0781C76.276 85.4115 76.5625 83.6406 76.5625 81.7656C76.5625 78.6406 75.7292 75.8802 74.0625 73.4844C72.4479 71.0885 70.2083 69.4219 67.3438 68.4844C66.3542 68.1198 65.2083 67.8854 63.9062 67.7812C62.6562 67.625 60.7552 67.5469 58.2031 67.5469V66.4531Z" fill="#98784D"/>
<rect x="45" y="76" width="89" height="25" fill="#EAE5DE"/>
<path d="M49.496 96V78.648H54.224C55.936 78.648 57.392 78.912 58.592 79.44C59.808 79.968 60.784 80.664 61.52 81.528C62.256 82.392 62.792 83.352 63.128 84.408C63.48 85.448 63.656 86.488 63.656 87.528C63.656 88.84 63.424 90.016 62.96 91.056C62.512 92.096 61.888 92.984 61.088 93.72C60.288 94.456 59.368 95.024 58.328 95.424C57.304 95.808 56.216 96 55.064 96H49.496ZM51.824 93.768H54.608C55.568 93.768 56.448 93.624 57.248 93.336C58.064 93.048 58.768 92.632 59.36 92.088C59.968 91.544 60.44 90.88 60.776 90.096C61.112 89.296 61.28 88.392 61.28 87.384C61.28 86.312 61.104 85.376 60.752 84.576C60.4 83.76 59.92 83.08 59.312 82.536C58.704 81.992 58.016 81.584 57.248 81.312C56.48 81.024 55.672 80.88 54.824 80.88H51.824V93.768ZM72.8223 96.24C71.6863 96.24 70.7103 96.016 69.8943 95.568C69.0783 95.104 68.4463 94.48 67.9983 93.696C67.5663 92.896 67.3503 91.984 67.3503 90.96C67.3503 89.984 67.5983 89.096 68.0943 88.296C68.5903 87.496 69.2543 86.856 70.0863 86.376C70.9183 85.896 71.8463 85.656 72.8703 85.656C74.1823 85.656 75.2703 86.04 76.1343 86.808C76.9983 87.576 77.5823 88.632 77.8863 89.976L69.7023 92.856L69.1743 91.536L75.8943 89.088L75.4143 89.4C75.2223 88.872 74.9023 88.416 74.4543 88.032C74.0063 87.632 73.4223 87.432 72.7023 87.432C72.0943 87.432 71.5503 87.584 71.0703 87.888C70.5903 88.176 70.2143 88.576 69.9423 89.088C69.6703 89.6 69.5343 90.184 69.5343 90.84C69.5343 91.528 69.6783 92.136 69.9663 92.664C70.2543 93.176 70.6463 93.584 71.1423 93.888C71.6543 94.176 72.2303 94.32 72.8703 94.32C73.3023 94.32 73.7183 94.24 74.1183 94.08C74.5343 93.92 74.9183 93.712 75.2703 93.456L76.3023 95.112C75.8063 95.448 75.2463 95.72 74.6223 95.928C74.0143 96.136 73.4143 96.24 72.8223 96.24ZM84.6671 96.192C83.9631 96.192 83.2751 96.072 82.6031 95.832C81.9471 95.576 81.4031 95.2 80.9711 94.704L81.9071 93.408C82.3231 93.808 82.7471 94.112 83.1791 94.32C83.6271 94.512 84.0671 94.608 84.4991 94.608C84.8191 94.608 85.1151 94.568 85.3871 94.488C85.6591 94.408 85.8751 94.28 86.0351 94.104C86.2111 93.912 86.2991 93.656 86.2991 93.336C86.2991 92.984 86.1791 92.704 85.9391 92.496C85.7151 92.288 85.4191 92.12 85.0511 91.992C84.6991 91.864 84.3231 91.744 83.9231 91.632C83.1071 91.36 82.4831 90.984 82.0511 90.504C81.6191 90.024 81.4031 89.44 81.4031 88.752C81.4031 88.224 81.5311 87.736 81.7871 87.288C82.0591 86.824 82.4511 86.448 82.9631 86.16C83.4911 85.872 84.1391 85.728 84.9071 85.728C85.5951 85.728 86.2111 85.816 86.7551 85.992C87.2991 86.152 87.8111 86.424 88.2911 86.808L87.4031 88.2C87.1151 87.896 86.7711 87.672 86.3711 87.528C85.9711 87.384 85.6111 87.304 85.2911 87.288C85.0191 87.272 84.7551 87.312 84.4991 87.408C84.2591 87.504 84.0591 87.64 83.8991 87.816C83.7391 87.992 83.6591 88.2 83.6591 88.44C83.6591 88.776 83.7711 89.048 83.9951 89.256C84.2191 89.464 84.5071 89.632 84.8591 89.76C85.2271 89.872 85.5871 89.992 85.9391 90.12C86.4351 90.264 86.8751 90.456 87.2591 90.696C87.6431 90.936 87.9471 91.232 88.1711 91.584C88.4111 91.936 88.5311 92.376 88.5311 92.904C88.5311 93.496 88.3871 94.048 88.0991 94.56C87.8271 95.056 87.4031 95.456 86.8271 95.76C86.2671 96.048 85.5471 96.192 84.6671 96.192ZM92.8565 86.064H95.0885V96H92.8565V86.064ZM92.6885 82.464C92.6885 82.112 92.8245 81.816 93.0965 81.576C93.3845 81.336 93.6965 81.216 94.0325 81.216C94.3685 81.216 94.6645 81.336 94.9205 81.576C95.1925 81.816 95.3285 82.112 95.3285 82.464C95.3285 82.832 95.1925 83.136 94.9205 83.376C94.6645 83.6 94.3685 83.712 94.0325 83.712C93.6965 83.712 93.3845 83.592 93.0965 83.352C92.8245 83.112 92.6885 82.816 92.6885 82.464ZM104.926 100.92C104.19 100.92 103.542 100.832 102.982 100.656C102.422 100.496 101.91 100.264 101.446 99.96C100.998 99.656 100.566 99.312 100.15 98.928L101.446 97.416C101.974 97.912 102.51 98.296 103.054 98.568C103.598 98.84 104.206 98.976 104.878 98.976C105.63 98.976 106.262 98.848 106.774 98.592C107.302 98.352 107.702 98.008 107.974 97.56C108.246 97.128 108.382 96.624 108.382 96.048L108.406 93.36L108.598 93.792C108.31 94.48 107.79 95.064 107.038 95.544C106.286 96.008 105.374 96.24 104.302 96.24C103.39 96.24 102.55 96.008 101.782 95.544C101.03 95.08 100.422 94.456 99.9582 93.672C99.5102 92.872 99.2862 91.976 99.2862 90.984C99.2862 89.944 99.5262 89.032 100.006 88.248C100.486 87.448 101.118 86.816 101.902 86.352C102.686 85.888 103.542 85.656 104.47 85.656C105.35 85.656 106.15 85.84 106.87 86.208C107.606 86.56 108.142 87.016 108.478 87.576L108.358 87.984L108.598 86.064H110.638V96.072C110.638 96.968 110.406 97.784 109.942 98.52C109.478 99.256 108.822 99.84 107.974 100.272C107.126 100.704 106.11 100.92 104.926 100.92ZM101.518 90.936C101.518 91.576 101.67 92.16 101.974 92.688C102.278 93.216 102.686 93.632 103.198 93.936C103.726 94.24 104.31 94.392 104.95 94.392C105.542 94.392 106.07 94.288 106.534 94.08C107.014 93.856 107.414 93.56 107.734 93.192C108.054 92.808 108.278 92.368 108.406 91.872V89.904C108.262 89.424 108.022 89.008 107.686 88.656C107.35 88.288 106.95 88.008 106.486 87.816C106.022 87.608 105.51 87.504 104.95 87.504C104.31 87.504 103.726 87.648 103.198 87.936C102.686 88.224 102.278 88.632 101.974 89.16C101.67 89.672 101.518 90.264 101.518 90.936ZM117.686 86.064L117.878 88.488L117.782 88.104C118.102 87.368 118.622 86.784 119.342 86.352C120.062 85.904 120.894 85.68 121.838 85.68C122.782 85.68 123.55 85.96 124.142 86.52C124.75 87.064 125.062 87.776 125.078 88.656V96H122.822V89.448C122.806 88.904 122.646 88.464 122.342 88.128C122.054 87.776 121.598 87.6 120.974 87.6C120.398 87.6 119.878 87.76 119.414 88.08C118.95 88.4 118.582 88.84 118.31 89.4C118.054 89.96 117.926 90.608 117.926 91.344V96H115.694V86.064H117.686ZM134.768 96.24C133.632 96.24 132.656 96.016 131.84 95.568C131.024 95.104 130.392 94.48 129.944 93.696C129.512 92.896 129.296 91.984 129.296 90.96C129.296 89.984 129.544 89.096 130.04 88.296C130.536 87.496 131.2 86.856 132.032 86.376C132.864 85.896 133.792 85.656 134.816 85.656C136.128 85.656 137.216 86.04 138.08 86.808C138.944 87.576 139.528 88.632 139.832 89.976L131.648 92.856L131.12 91.536L137.84 89.088L137.36 89.4C137.168 88.872 136.848 88.416 136.4 88.032C135.952 87.632 135.368 87.432 134.648 87.432C134.04 87.432 133.496 87.584 133.016 87.888C132.536 88.176 132.16 88.576 131.888 89.088C131.616 89.6 131.48 90.184 131.48 90.84C131.48 91.528 131.624 92.136 131.912 92.664C132.2 93.176 132.592 93.584 133.088 93.888C133.6 94.176 134.176 94.32 134.816 94.32C135.248 94.32 135.664 94.24 136.064 94.08C136.48 93.92 136.864 93.712 137.216 93.456L138.248 95.112C137.752 95.448 137.192 95.72 136.568 95.928C135.96 96.136 135.36 96.24 134.768 96.24ZM145.82 86.064L146.036 88.944L145.916 88.56C146.172 87.952 146.54 87.44 147.02 87.024C147.516 86.592 148.028 86.264 148.556 86.04C149.1 85.8 149.572 85.68 149.972 85.68L149.852 87.888C149.1 87.84 148.436 87.984 147.86 88.32C147.3 88.656 146.852 89.104 146.516 89.664C146.196 90.224 146.036 90.824 146.036 91.464V96H143.828V86.064H145.82ZM156.836 96.192C156.132 96.192 155.444 96.072 154.772 95.832C154.116 95.576 153.572 95.2 153.14 94.704L154.076 93.408C154.492 93.808 154.916 94.112 155.348 94.32C155.796 94.512 156.236 94.608 156.668 94.608C156.988 94.608 157.284 94.568 157.556 94.488C157.828 94.408 158.044 94.28 158.204 94.104C158.38 93.912 158.468 93.656 158.468 93.336C158.468 92.984 158.348 92.704 158.108 92.496C157.884 92.288 157.588 92.12 157.22 91.992C156.868 91.864 156.492 91.744 156.092 91.632C155.276 91.36 154.652 90.984 154.22 90.504C153.788 90.024 153.572 89.44 153.572 88.752C153.572 88.224 153.7 87.736 153.956 87.288C154.228 86.824 154.62 86.448 155.132 86.16C155.66 85.872 156.308 85.728 157.076 85.728C157.764 85.728 158.38 85.816 158.924 85.992C159.468 86.152 159.98 86.424 160.46 86.808L159.572 88.2C159.284 87.896 158.94 87.672 158.54 87.528C158.14 87.384 157.78 87.304 157.46 87.288C157.188 87.272 156.924 87.312 156.668 87.408C156.428 87.504 156.228 87.64 156.068 87.816C155.908 87.992 155.828 88.2 155.828 88.44C155.828 88.776 155.94 89.048 156.164 89.256C156.388 89.464 156.676 89.632 157.028 89.76C157.396 89.872 157.756 89.992 158.108 90.12C158.604 90.264 159.044 90.456 159.428 90.696C159.812 90.936 160.116 91.232 160.34 91.584C160.58 91.936 160.7 92.376 160.7 92.904C160.7 93.496 160.556 94.048 160.268 94.56C159.996 95.056 159.572 95.456 158.996 95.76C158.436 96.048 157.716 96.192 156.836 96.192Z" fill="#444444"/>
</svg>
