<svg width="101" height="103" viewBox="0 0 101 103" fill="none" xmlns="http://www.w3.org/2000/svg">
<path d="M18.125 29.8125C20.4167 29.8125 22.5208 30.4167 24.4375 31.625C26.3958 32.7917 28.0833 34.4583 29.5 36.625C30.9167 38.7917 32 41.3958 32.75 44.4375C33.5417 47.4375 33.9375 50.7708 33.9375 54.4375C33.9375 56.6875 33.7708 58.875 33.4375 61C33.1042 63.125 32.625 65.1042 32 66.9375C31.375 68.7708 30.6042 70.4375 29.6875 71.9375C28.8125 73.4375 27.8333 74.6667 26.75 75.625C24.25 77.875 21.2708 79 17.8125 79C15.6042 79 13.5833 78.5625 11.75 77.6875C9.95833 76.7708 8.39583 75.4583 7.0625 73.75C6.27083 72.7083 5.54167 71.4583 4.875 70C4.20833 68.5 3.625 66.8958 3.125 65.1875C2.66667 63.4375 2.29167 61.625 2 59.75C1.75 57.8333 1.625 55.9375 1.625 54.0625C1.625 51.8958 1.79167 49.7708 2.125 47.6875C2.5 45.5625 3 43.5833 3.625 41.75C4.29167 39.9167 5.08333 38.2708 6 36.8125C6.91667 35.3125 7.91667 34.0833 9 33.125C10.2917 31.9583 11.6667 31.125 13.125 30.625C14.5833 30.0833 16.25 29.8125 18.125 29.8125ZM17.6875 31.625C14.6875 31.625 12.4167 33.5833 10.875 37.5C9.33333 41.4167 8.5625 47.1042 8.5625 54.5625C8.5625 69.6042 11.6458 77.125 17.8125 77.125C20.8542 77.125 23.1458 75.2708 24.6875 71.5625C26.2708 67.8125 27.0625 62.25 27.0625 54.875C27.0625 47.125 26.2708 41.3125 24.6875 37.4375C23.1458 33.5625 20.8125 31.625 17.6875 31.625ZM69.375 66.125H62.0625V78H56.5625V66.125H36.5625V61.5625L58.9375 29.8125H62.0625V61.5625H69.375V66.125ZM56.5 37.0625L39.375 61.5625H56.5V37.0625Z" fill="#98784D"/>
<rect x="36" y="61" width="65" height="19" fill="white"/>
<path d="M44.946 69.125C45.814 69.461 46.5 69.944 47.004 70.574C47.508 71.19 47.76 71.911 47.76 72.737C47.76 73.703 47.522 74.508 47.046 75.152C46.584 75.782 45.968 76.251 45.198 76.559C44.442 76.853 43.609 77 42.699 77H38.184V61.817H42.111C43.665 61.817 44.869 62.139 45.723 62.783C46.577 63.413 47.004 64.365 47.004 65.639C47.004 66.437 46.822 67.137 46.458 67.739C46.108 68.327 45.604 68.789 44.946 69.125ZM40.221 68.453H42.531C43.315 68.453 43.903 68.229 44.295 67.781C44.701 67.333 44.904 66.759 44.904 66.059C44.904 65.289 44.666 64.715 44.19 64.337C43.714 63.959 43.049 63.77 42.195 63.77H40.221V68.453ZM42.615 75.11C43.497 75.11 44.225 74.914 44.799 74.522C45.373 74.116 45.66 73.528 45.66 72.758C45.66 71.96 45.345 71.372 44.715 70.994C44.099 70.616 43.35 70.427 42.468 70.427H40.221V75.11H42.615ZM53.706 60.725V77H51.753V60.725H53.706ZM57.3995 72.569C57.3995 71.715 57.6025 70.938 58.0085 70.238C58.4285 69.524 59.0025 68.964 59.7305 68.558C60.4725 68.152 61.3055 67.949 62.2295 67.949C63.1535 67.949 63.9725 68.152 64.6865 68.558C65.4145 68.964 65.9745 69.517 66.3665 70.217C66.7725 70.917 66.9755 71.701 66.9755 72.569C66.9755 73.437 66.7725 74.228 66.3665 74.942C65.9745 75.642 65.4145 76.195 64.6865 76.601C63.9585 77.007 63.1255 77.21 62.1875 77.21C61.2775 77.21 60.4585 77.021 59.7305 76.643C59.0025 76.251 58.4285 75.705 58.0085 75.005C57.6025 74.305 57.3995 73.493 57.3995 72.569ZM59.3735 72.59C59.3735 73.136 59.4925 73.64 59.7305 74.102C59.9825 74.564 60.3185 74.928 60.7385 75.194C61.1725 75.46 61.6485 75.593 62.1665 75.593C62.9785 75.593 63.6505 75.306 64.1825 74.732C64.7145 74.158 64.9805 73.444 64.9805 72.59C64.9805 71.736 64.7145 71.022 64.1825 70.448C63.6505 69.86 62.9785 69.566 62.1665 69.566C61.6345 69.566 61.1585 69.706 60.7385 69.986C60.3185 70.252 59.9825 70.616 59.7305 71.078C59.4925 71.54 59.3735 72.044 59.3735 72.59ZM79.8259 68.306V77.063C79.8259 77.861 79.6229 78.582 79.2169 79.226C78.8109 79.87 78.2299 80.381 77.4739 80.759C76.7319 81.137 75.8569 81.326 74.8489 81.326C73.9669 81.326 73.2039 81.179 72.5599 80.885C71.9299 80.591 71.2929 80.157 70.6489 79.583L71.8039 78.239C72.2799 78.687 72.7559 79.023 73.2319 79.247C73.7079 79.485 74.2329 79.604 74.8069 79.604C75.7729 79.604 76.5149 79.373 77.0329 78.911C77.5649 78.449 77.8379 77.826 77.8519 77.042L77.8729 75.404C77.5509 75.95 77.0749 76.391 76.4449 76.727C75.8289 77.049 75.1149 77.21 74.3029 77.21C73.5049 77.21 72.7699 77.007 72.0979 76.601C71.4259 76.195 70.8869 75.642 70.4809 74.942C70.0889 74.242 69.8929 73.465 69.8929 72.611C69.8929 71.729 70.0959 70.938 70.5019 70.238C70.9219 69.524 71.4819 68.964 72.1819 68.558C72.8819 68.152 73.6309 67.949 74.4289 67.949C75.1709 67.949 75.8569 68.096 76.4869 68.39C77.1169 68.684 77.5859 69.062 77.8939 69.524L78.0409 68.306H79.8259ZM74.8699 75.593C75.6119 75.593 76.2559 75.39 76.8019 74.984C77.3479 74.578 77.7049 74.046 77.8729 73.388V71.666C77.6769 71.036 77.3059 70.532 76.7599 70.154C76.2139 69.762 75.5839 69.566 74.8699 69.566C74.0159 69.566 73.3019 69.846 72.7279 70.406C72.1539 70.966 71.8669 71.68 71.8669 72.548C71.8669 73.108 71.9999 73.619 72.2659 74.081C72.5319 74.543 72.8959 74.914 73.3579 75.194C73.8199 75.46 74.3239 75.593 74.8699 75.593Z" fill="#444444"/>
</svg>
