<svg width="110" height="103" viewBox="0 0 110 103" fill="none" xmlns="http://www.w3.org/2000/svg">
<path d="M18.125 29.8125C20.4167 29.8125 22.5208 30.4167 24.4375 31.625C26.3958 32.7917 28.0833 34.4583 29.5 36.625C30.9167 38.7917 32 41.3958 32.75 44.4375C33.5417 47.4375 33.9375 50.7708 33.9375 54.4375C33.9375 56.6875 33.7708 58.875 33.4375 61C33.1042 63.125 32.625 65.1042 32 66.9375C31.375 68.7708 30.6042 70.4375 29.6875 71.9375C28.8125 73.4375 27.8333 74.6667 26.75 75.625C24.25 77.875 21.2708 79 17.8125 79C15.6042 79 13.5833 78.5625 11.75 77.6875C9.95833 76.7708 8.39583 75.4583 7.0625 73.75C6.27083 72.7083 5.54167 71.4583 4.875 70C4.20833 68.5 3.625 66.8958 3.125 65.1875C2.66667 63.4375 2.29167 61.625 2 59.75C1.75 57.8333 1.625 55.9375 1.625 54.0625C1.625 51.8958 1.79167 49.7708 2.125 47.6875C2.5 45.5625 3 43.5833 3.625 41.75C4.29167 39.9167 5.08333 38.2708 6 36.8125C6.91667 35.3125 7.91667 34.0833 9 33.125C10.2917 31.9583 11.6667 31.125 13.125 30.625C14.5833 30.0833 16.25 29.8125 18.125 29.8125ZM17.6875 31.625C14.6875 31.625 12.4167 33.5833 10.875 37.5C9.33333 41.4167 8.5625 47.1042 8.5625 54.5625C8.5625 69.6042 11.6458 77.125 17.8125 77.125C20.8542 77.125 23.1458 75.2708 24.6875 71.5625C26.2708 67.8125 27.0625 62.25 27.0625 54.875C27.0625 47.125 26.2708 41.3125 24.6875 37.4375C23.1458 33.5625 20.8125 31.625 17.6875 31.625ZM45.625 42.5C47.75 42.875 49.6042 43.2708 51.1875 43.6875C52.8125 44.1042 54.2292 44.5625 55.4375 45.0625C56.6875 45.5625 57.7708 46.125 58.6875 46.75C59.6458 47.375 60.5417 48.0833 61.375 48.875C62.25 49.7917 62.9792 50.6875 63.5625 51.5625C64.1458 52.4375 64.625 53.3542 65 54.3125C65.375 55.2292 65.6458 56.2292 65.8125 57.3125C65.9792 58.3542 66.0625 59.5 66.0625 60.75C66.0625 66.125 64.5 70.3542 61.375 73.4375C59.5417 75.2708 57.3542 76.6667 54.8125 77.625C52.3125 78.5417 49.5625 79 46.5625 79C43.8958 79 41.7917 78.6042 40.25 77.8125C38.75 77.0208 38 75.9583 38 74.625C38 72.8333 38.9792 71.9375 40.9375 71.9375C41.7708 71.9375 42.6042 72.125 43.4375 72.5C44.2708 72.8333 45.25 73.4375 46.375 74.3125C47.5 75.1042 48.3958 75.6458 49.0625 75.9375C49.7292 76.2292 50.4167 76.375 51.125 76.375C52.5417 76.375 53.8542 76.0625 55.0625 75.4375C56.2708 74.8125 57.3125 73.9583 58.1875 72.875C59.1042 71.75 59.8125 70.4583 60.3125 69C60.8125 67.5417 61.0625 65.9583 61.0625 64.25C61.0625 60.5417 60.0625 57.5625 58.0625 55.3125C56.0625 53.0208 52.9167 51.2083 48.625 49.875C47.1667 49.5 45.8125 49.2083 44.5625 49C43.3542 48.75 42.2083 48.625 41.125 48.625C40.5417 48.625 40.25 48.4375 40.25 48.0625C40.25 47.8542 40.2708 47.7292 40.3125 47.6875L48.0625 30.75H63C63.75 30.75 64.3333 30.6458 64.75 30.4375C65.2083 30.1875 65.7292 29.6875 66.3125 28.9375L66.9375 29.4375L64.1875 35.8125C64.0625 36.0208 63.8958 36.1875 63.6875 36.3125C63.5208 36.3958 63.1458 36.4375 62.5625 36.4375H48.625L45.625 42.5Z" fill="#98784D"/>
<rect x="36" y="62" width="74" height="25" fill="white"/>
<path d="M46.143 74.01H40.305L38.688 78H36.672L43.308 62.187H43.434L50.07 78H47.718L46.143 74.01ZM45.45 72.246L43.287 66.702L41.04 72.246H45.45ZM60.3265 77.181C59.9345 77.503 59.4655 77.755 58.9195 77.937C58.3875 78.119 57.8415 78.21 57.2815 78.21C56.3435 78.21 55.5105 78.021 54.7825 77.643C54.0685 77.265 53.5085 76.733 53.1025 76.047C52.7105 75.347 52.5145 74.542 52.5145 73.632C52.5145 72.736 52.7245 71.945 53.1445 71.259C53.5645 70.559 54.1245 70.02 54.8245 69.642C55.5245 69.264 56.2805 69.075 57.0925 69.075C58.4225 69.075 59.5215 69.439 60.3895 70.167L59.4025 71.448C59.1225 71.238 58.8005 71.063 58.4365 70.923C58.0725 70.769 57.6805 70.692 57.2605 70.692C56.7425 70.692 56.2665 70.825 55.8325 71.091C55.4125 71.343 55.0765 71.693 54.8245 72.141C54.5865 72.589 54.4675 73.086 54.4675 73.632C54.4675 74.178 54.5935 74.675 54.8455 75.123C55.1115 75.571 55.4685 75.928 55.9165 76.194C56.3645 76.46 56.8755 76.593 57.4495 76.593C58.1635 76.593 58.7865 76.383 59.3185 75.963L60.3265 77.181ZM70.9537 77.181C70.5617 77.503 70.0927 77.755 69.5467 77.937C69.0147 78.119 68.4687 78.21 67.9087 78.21C66.9707 78.21 66.1377 78.021 65.4097 77.643C64.6957 77.265 64.1357 76.733 63.7297 76.047C63.3377 75.347 63.1417 74.542 63.1417 73.632C63.1417 72.736 63.3517 71.945 63.7717 71.259C64.1917 70.559 64.7517 70.02 65.4517 69.642C66.1517 69.264 66.9077 69.075 67.7197 69.075C69.0497 69.075 70.1487 69.439 71.0167 70.167L70.0297 71.448C69.7497 71.238 69.4277 71.063 69.0637 70.923C68.6997 70.769 68.3077 70.692 67.8877 70.692C67.3697 70.692 66.8937 70.825 66.4597 71.091C66.0397 71.343 65.7037 71.693 65.4517 72.141C65.2137 72.589 65.0947 73.086 65.0947 73.632C65.0947 74.178 65.2207 74.675 65.4727 75.123C65.7387 75.571 66.0957 75.928 66.5437 76.194C66.9917 76.46 67.5027 76.593 68.0767 76.593C68.7907 76.593 69.4137 76.383 69.9457 75.963L70.9537 77.181ZM78.5988 76.53C79.3268 76.53 80.0338 76.278 80.7198 75.774L81.6228 77.223C81.1608 77.531 80.6568 77.776 80.1108 77.958C79.5788 78.126 79.0608 78.21 78.5568 78.21C77.5908 78.21 76.7438 78.014 76.0158 77.622C75.3018 77.216 74.7488 76.663 74.3568 75.963C73.9648 75.263 73.7688 74.472 73.7688 73.59C73.7688 72.736 73.9788 71.959 74.3988 71.259C74.8328 70.545 75.4208 69.985 76.1628 69.579C76.9048 69.159 77.7168 68.949 78.5988 68.949C79.7328 68.949 80.6778 69.285 81.4338 69.957C82.2038 70.615 82.7288 71.539 83.0088 72.729L76.1208 75.144C76.3728 75.578 76.7088 75.921 77.1288 76.173C77.5628 76.411 78.0528 76.53 78.5988 76.53ZM78.4518 70.503C77.6538 70.503 76.9958 70.783 76.4778 71.343C75.9598 71.903 75.7008 72.617 75.7008 73.485C75.7008 73.695 75.7078 73.856 75.7218 73.968L80.7828 72.099C80.5728 71.623 80.2718 71.238 79.8798 70.944C79.5018 70.65 79.0258 70.503 78.4518 70.503ZM88.942 78.189C88.298 78.189 87.682 78.077 87.094 77.853C86.52 77.629 86.051 77.3 85.687 76.866L86.527 75.732C86.877 76.068 87.241 76.327 87.619 76.509C88.011 76.691 88.396 76.782 88.774 76.782C89.236 76.782 89.614 76.691 89.908 76.509C90.202 76.327 90.349 76.047 90.349 75.669C90.349 75.375 90.258 75.137 90.076 74.955C89.894 74.773 89.684 74.64 89.446 74.556C89.222 74.472 88.837 74.346 88.291 74.178C86.807 73.702 86.065 72.855 86.065 71.637C86.065 70.909 86.331 70.286 86.863 69.768C87.409 69.25 88.165 68.991 89.131 68.991C89.747 68.991 90.293 69.068 90.769 69.222C91.245 69.376 91.686 69.621 92.092 69.957L91.315 71.154C91.091 70.916 90.804 70.727 90.454 70.587C90.118 70.447 89.796 70.37 89.488 70.356C89.096 70.356 88.76 70.454 88.48 70.65C88.2 70.832 88.06 71.084 88.06 71.406C88.06 71.672 88.151 71.896 88.333 72.078C88.515 72.246 88.704 72.372 88.9 72.456C89.096 72.526 89.481 72.652 90.055 72.834C90.769 73.072 91.322 73.38 91.714 73.758C92.12 74.136 92.323 74.647 92.323 75.291C92.323 76.131 92.029 76.824 91.441 77.37C90.853 77.916 90.02 78.189 88.942 78.189ZM98.5643 78.189C97.9203 78.189 97.3043 78.077 96.7163 77.853C96.1423 77.629 95.6733 77.3 95.3093 76.866L96.1493 75.732C96.4993 76.068 96.8633 76.327 97.2413 76.509C97.6333 76.691 98.0183 76.782 98.3963 76.782C98.8583 76.782 99.2363 76.691 99.5303 76.509C99.8243 76.327 99.9713 76.047 99.9713 75.669C99.9713 75.375 99.8803 75.137 99.6983 74.955C99.5163 74.773 99.3063 74.64 99.0683 74.556C98.8443 74.472 98.4593 74.346 97.9133 74.178C96.4293 73.702 95.6873 72.855 95.6873 71.637C95.6873 70.909 95.9533 70.286 96.4853 69.768C97.0313 69.25 97.7873 68.991 98.7533 68.991C99.3693 68.991 99.9153 69.068 100.391 69.222C100.867 69.376 101.308 69.621 101.714 69.957L100.937 71.154C100.713 70.916 100.426 70.727 100.076 70.587C99.7403 70.447 99.4183 70.37 99.1103 70.356C98.7183 70.356 98.3823 70.454 98.1023 70.65C97.8223 70.832 97.6823 71.084 97.6823 71.406C97.6823 71.672 97.7733 71.896 97.9553 72.078C98.1373 72.246 98.3263 72.372 98.5223 72.456C98.7183 72.526 99.1033 72.652 99.6773 72.834C100.391 73.072 100.944 73.38 101.336 73.758C101.742 74.136 101.945 74.647 101.945 75.291C101.945 76.131 101.651 76.824 101.063 77.37C100.475 77.916 99.6423 78.189 98.5643 78.189Z" fill="#444444"/>
</svg>
