<svg width="115" height="103" viewBox="0 0 115 103" fill="none" xmlns="http://www.w3.org/2000/svg">
<path d="M18.125 29.8125C20.4167 29.8125 22.5208 30.4167 24.4375 31.625C26.3958 32.7917 28.0833 34.4583 29.5 36.625C30.9167 38.7917 32 41.3958 32.75 44.4375C33.5417 47.4375 33.9375 50.7708 33.9375 54.4375C33.9375 56.6875 33.7708 58.875 33.4375 61C33.1042 63.125 32.625 65.1042 32 66.9375C31.375 68.7708 30.6042 70.4375 29.6875 71.9375C28.8125 73.4375 27.8333 74.6667 26.75 75.625C24.25 77.875 21.2708 79 17.8125 79C15.6042 79 13.5833 78.5625 11.75 77.6875C9.95833 76.7708 8.39583 75.4583 7.0625 73.75C6.27083 72.7083 5.54167 71.4583 4.875 70C4.20833 68.5 3.625 66.8958 3.125 65.1875C2.66667 63.4375 2.29167 61.625 2 59.75C1.75 57.8333 1.625 55.9375 1.625 54.0625C1.625 51.8958 1.79167 49.7708 2.125 47.6875C2.5 45.5625 3 43.5833 3.625 41.75C4.29167 39.9167 5.08333 38.2708 6 36.8125C6.91667 35.3125 7.91667 34.0833 9 33.125C10.2917 31.9583 11.6667 31.125 13.125 30.625C14.5833 30.0833 16.25 29.8125 18.125 29.8125ZM17.6875 31.625C14.6875 31.625 12.4167 33.5833 10.875 37.5C9.33333 41.4167 8.5625 47.1042 8.5625 54.5625C8.5625 69.6042 11.6458 77.125 17.8125 77.125C20.8542 77.125 23.1458 75.2708 24.6875 71.5625C26.2708 67.8125 27.0625 62.25 27.0625 54.875C27.0625 47.125 26.2708 41.3125 24.6875 37.4375C23.1458 33.5625 20.8125 31.625 17.6875 31.625ZM67.6875 30.375C64.8542 30.8333 62.25 31.6458 59.875 32.8125C57.5 33.9792 55.3958 35.4375 53.5625 37.1875C51.7708 38.9375 50.2708 40.9583 49.0625 43.25C47.8542 45.5 47 47.9792 46.5 50.6875C47.625 50.0208 48.5833 49.4792 49.375 49.0625C50.1667 48.6458 50.875 48.3125 51.5 48.0625C52.1667 47.8125 52.8125 47.6458 53.4375 47.5625C54.0625 47.4792 54.7708 47.4375 55.5625 47.4375C57.6458 47.4375 59.5208 47.7917 61.1875 48.5C62.8542 49.1667 64.2708 50.1667 65.4375 51.5C66.6042 52.7917 67.5 54.375 68.125 56.25C68.75 58.0833 69.0625 60.1458 69.0625 62.4375C69.0625 64.8958 68.6875 67.1458 67.9375 69.1875C67.2292 71.1875 66.2083 72.9167 64.875 74.375C63.5833 75.8333 62 76.9792 60.125 77.8125C58.2917 78.6042 56.2708 79 54.0625 79C51.7292 79 49.5833 78.5625 47.625 77.6875C45.7083 76.7708 44.0833 75.4583 42.75 73.75C41.2917 71.9583 40.1458 69.6667 39.3125 66.875C38.5208 64.0417 38.125 61.125 38.125 58.125C38.125 53.2083 39.1667 48.75 41.25 44.75C43.375 40.7083 46.4583 37.2917 50.5 34.5C51.75 33.6667 52.9583 32.9583 54.125 32.375C55.3333 31.7917 56.5833 31.2917 57.875 30.875C59.2083 30.4583 60.6458 30.125 62.1875 29.875C63.7292 29.625 65.5 29.3958 67.5 29.1875L67.6875 30.375ZM52.6875 50.75C51.5625 50.75 50.4583 50.9167 49.375 51.25C48.2917 51.5417 47.3958 51.9792 46.6875 52.5625C45.3958 53.5625 44.75 55.7083 44.75 59C44.75 64.7083 45.625 69.1458 47.375 72.3125C49.1667 75.4375 51.6667 77 54.875 77C57.375 77 59.2917 75.9583 60.625 73.875C61.9583 71.7917 62.625 68.7917 62.625 64.875C62.625 60.3333 61.7708 56.8542 60.0625 54.4375C58.3958 51.9792 55.9375 50.75 52.6875 50.75Z" fill="#98784D"/>
<rect x="36" y="59" width="79" height="24" fill="white"/>
<path d="M50.091 76.698C49.629 77.062 48.901 77.398 47.907 77.706C46.927 78.014 46.017 78.168 45.177 78.168C43.595 78.168 42.202 77.846 40.998 77.202C39.794 76.544 38.863 75.648 38.205 74.514C37.561 73.38 37.239 72.106 37.239 70.692C37.239 69.04 37.589 67.612 38.289 66.408C38.989 65.19 39.934 64.259 41.124 63.615C42.314 62.971 43.616 62.649 45.03 62.649C45.884 62.649 46.689 62.754 47.445 62.964C48.201 63.16 48.88 63.426 49.482 63.762L48.81 65.631C48.362 65.379 47.795 65.162 47.109 64.98C46.437 64.784 45.828 64.686 45.282 64.686C44.106 64.686 43.063 64.924 42.153 65.4C41.257 65.876 40.564 66.555 40.074 67.437C39.584 68.319 39.339 69.348 39.339 70.524C39.339 71.616 39.584 72.589 40.074 73.443C40.564 74.297 41.257 74.962 42.153 75.438C43.049 75.9 44.071 76.131 45.219 76.131C45.751 76.131 46.269 76.082 46.773 75.984C47.277 75.872 47.697 75.718 48.033 75.522V72.519H45.009V70.566H50.091V76.698ZM63.467 69.306V78H61.514V76.572C61.206 76.978 60.758 77.356 60.17 77.706C59.582 78.042 58.917 78.21 58.175 78.21C57.349 78.21 56.6 78.035 55.928 77.685C55.27 77.321 54.745 76.796 54.353 76.11C53.975 75.424 53.786 74.605 53.786 73.653C53.786 72.701 53.982 71.875 54.374 71.175C54.78 70.461 55.319 69.915 55.991 69.537C56.677 69.145 57.433 68.949 58.259 68.949C59.001 68.949 59.645 69.11 60.191 69.432C60.737 69.754 61.178 70.174 61.514 70.692L61.661 69.306H63.467ZM58.7 76.593C59.414 76.593 60.023 76.397 60.527 76.005C61.045 75.599 61.374 75.053 61.514 74.367V72.645C61.346 72.029 60.996 71.532 60.464 71.154C59.932 70.762 59.323 70.566 58.637 70.566C58.119 70.566 57.636 70.692 57.188 70.944C56.754 71.196 56.404 71.553 56.138 72.015C55.886 72.463 55.76 72.974 55.76 73.548C55.76 74.108 55.893 74.619 56.159 75.081C56.425 75.543 56.782 75.914 57.23 76.194C57.678 76.46 58.168 76.593 58.7 76.593ZM69.8702 61.725V78H67.9172V61.725H69.8702ZM76.2728 61.725V78H74.3198V61.725H76.2728ZM84.7963 76.53C85.5243 76.53 86.2313 76.278 86.9173 75.774L87.8203 77.223C87.3583 77.531 86.8543 77.776 86.3083 77.958C85.7763 78.126 85.2583 78.21 84.7543 78.21C83.7883 78.21 82.9413 78.014 82.2133 77.622C81.4993 77.216 80.9463 76.663 80.5543 75.963C80.1623 75.263 79.9663 74.472 79.9663 73.59C79.9663 72.736 80.1763 71.959 80.5963 71.259C81.0303 70.545 81.6183 69.985 82.3603 69.579C83.1023 69.159 83.9143 68.949 84.7963 68.949C85.9303 68.949 86.8753 69.285 87.6313 69.957C88.4013 70.615 88.9263 71.539 89.2063 72.729L82.3183 75.144C82.5703 75.578 82.9063 75.921 83.3263 76.173C83.7603 76.411 84.2503 76.53 84.7963 76.53ZM84.6493 70.503C83.8513 70.503 83.1933 70.783 82.6753 71.343C82.1573 71.903 81.8983 72.617 81.8983 73.485C81.8983 73.695 81.9053 73.856 81.9193 73.968L86.9803 72.099C86.7703 71.623 86.4693 71.238 86.0773 70.944C85.6993 70.65 85.2233 70.503 84.6493 70.503ZM94.5724 71.364C94.7964 70.888 95.1114 70.468 95.5174 70.104C95.9374 69.74 96.3784 69.46 96.8404 69.264C97.3024 69.068 97.7084 68.963 98.0584 68.949L97.9744 70.902C97.3444 70.874 96.7704 71 96.2524 71.28C95.7484 71.56 95.3494 71.952 95.0554 72.456C94.7754 72.946 94.6354 73.471 94.6354 74.031V78H92.6824V69.306H94.4254L94.5724 71.364ZM109.902 69.306L104.295 82.179H102.363L104.358 77.706L100.326 69.306H102.531L105.345 75.501L108.096 69.306H109.902Z" fill="#444444"/>
</svg>
